<svg width="426" height="180" viewBox="0 0 426 180" fill="none" xmlns="http://www.w3.org/2000/svg">
<path d="M6 0L3.11325 5L8.88675 5L6 0ZM5.5 4.5L5.49999 180L6.49999 180L6.5 4.5L5.5 4.5Z" fill="black"/>
<path d="M426 120L421 117.113L421 122.887L426 120ZM4.37114e-08 120.5L421.5 120.5L421.5 119.5L-4.37114e-08 119.5L4.37114e-08 120.5Z" fill="black"/>
<line x1="186.5" y1="117" x2="186.5" y2="122" stroke="black"/>
<line x1="186.5" y1="2.18557e-08" x2="186.5" y2="180" stroke="#595959" stroke-dasharray="2 2"/>
<line x1="306.5" y1="2.18557e-08" x2="306.5" y2="180" stroke="#595959" stroke-dasharray="2 2"/>
<line x1="306.5" y1="117" x2="306.5" y2="122" stroke="black"/>
<rect x="186" width="120" height="120" fill="#7E55F4" fill-opacity="0.54"/>
<rect x="6" y="120" width="180" height="60" fill="#FFACAC" fill-opacity="0.54"/>
<rect x="306" y="120" width="120" height="60" fill="#FFACAC" fill-opacity="0.54"/>
<path d="M176.172 115H175.337L178.511 106.273H179.364L182.538 115H181.703L178.967 107.308H178.908L176.172 115ZM176.773 111.655H181.102V112.371H176.773V111.655Z" fill="black"/>
<path d="M12.7969 12V11.3991L16.581 6.22585V6.17045H12.9588V5.45455H17.5568V6.08097L13.8409 11.2287V11.2841H17.6932V12H12.7969ZM23.7028 12V12.7159H18.342V12H23.7028ZM26.9382 12.1193C26.4013 12.1193 25.9212 12.0227 25.4979 11.8295C25.0746 11.6335 24.7393 11.3622 24.4922 11.0156C24.245 10.669 24.1143 10.2699 24.1001 9.81818H24.9055C24.9197 10.1364 25.0178 10.4148 25.1996 10.6534C25.3814 10.8892 25.6229 11.0739 25.924 11.2074C26.2251 11.3381 26.5604 11.4034 26.9297 11.4034C27.3331 11.4034 27.6882 11.3281 27.995 11.1776C28.3047 11.027 28.5462 10.821 28.7195 10.5597C28.8956 10.2955 28.9837 9.99716 28.9837 9.66477C28.9837 9.3125 28.8942 9.00142 28.7152 8.73153C28.5362 8.46165 28.2791 8.25142 27.9439 8.10085C27.6115 7.95028 27.2138 7.875 26.7507 7.875H26.2393V7.15909H26.7507C27.1286 7.15909 27.4624 7.09091 27.7521 6.95455C28.0447 6.81534 28.2749 6.62074 28.4425 6.37074C28.6101 6.12074 28.6939 5.8267 28.6939 5.48864C28.6939 5.16761 28.6214 4.88494 28.4766 4.64062C28.3317 4.39631 28.1271 4.20455 27.8629 4.06534C27.6016 3.92614 27.2962 3.85653 26.9467 3.85653C26.6087 3.85653 26.299 3.92187 26.0178 4.05256C25.7365 4.18324 25.5092 4.3679 25.3359 4.60653C25.1655 4.84517 25.0746 5.12784 25.0632 5.45455H24.2919C24.3033 5 24.4283 4.60085 24.6669 4.2571C24.9084 3.91051 25.228 3.64062 25.6257 3.44744C26.0263 3.25142 26.4695 3.15341 26.9553 3.15341C27.4695 3.15341 27.9141 3.25852 28.2891 3.46875C28.6641 3.67898 28.9538 3.95881 29.1584 4.30824C29.3658 4.65483 29.4695 5.03693 29.4695 5.45455C29.4695 5.9517 29.3345 6.37784 29.0646 6.73295C28.7947 7.08523 28.4311 7.32955 27.9737 7.46591V7.52131C28.5305 7.6321 28.968 7.87926 29.2862 8.26278C29.6072 8.64347 29.7678 9.1108 29.7678 9.66477C29.7678 10.1307 29.6456 10.5497 29.4013 10.9219C29.157 11.2912 28.8217 11.5838 28.3956 11.7997C27.9723 12.0128 27.4865 12.1193 26.9382 12.1193Z" fill="black"/>
<path d="M423.898 109.455C423.849 108.969 423.635 108.582 423.254 108.295C422.874 108.009 422.395 107.865 421.818 107.865C421.412 107.865 421.054 107.935 420.744 108.074C420.438 108.213 420.196 108.406 420.02 108.653C419.847 108.898 419.76 109.176 419.76 109.489C419.76 109.719 419.81 109.92 419.909 110.094C420.009 110.267 420.142 110.416 420.31 110.541C420.48 110.663 420.668 110.768 420.872 110.857C421.08 110.945 421.288 111.018 421.499 111.078L422.419 111.342C422.697 111.419 422.976 111.517 423.254 111.636C423.533 111.756 423.787 111.906 424.017 112.088C424.25 112.267 424.436 112.487 424.575 112.749C424.717 113.007 424.788 113.318 424.788 113.682C424.788 114.148 424.668 114.567 424.426 114.939C424.185 115.311 423.838 115.607 423.386 115.825C422.935 116.041 422.393 116.149 421.763 116.149C421.169 116.149 420.653 116.051 420.216 115.855C419.778 115.656 419.435 115.382 419.185 115.033C418.935 114.683 418.794 114.278 418.763 113.818H419.581C419.609 114.162 419.723 114.453 419.922 114.692C420.121 114.93 420.379 115.112 420.697 115.237C421.016 115.359 421.371 115.42 421.763 115.42C422.197 115.42 422.584 115.348 422.922 115.203C423.263 115.055 423.53 114.851 423.723 114.589C423.919 114.325 424.017 114.018 424.017 113.669C424.017 113.374 423.94 113.126 423.787 112.928C423.634 112.726 423.419 112.557 423.143 112.42C422.871 112.284 422.554 112.163 422.193 112.058L421.149 111.751C420.464 111.547 419.933 111.264 419.555 110.903C419.178 110.543 418.989 110.082 418.989 109.523C418.989 109.054 419.114 108.642 419.364 108.287C419.616 107.929 419.957 107.651 420.386 107.452C420.818 107.25 421.303 107.149 421.839 107.149C422.382 107.149 422.862 107.249 423.28 107.447C423.697 107.646 424.028 107.92 424.273 108.27C424.52 108.616 424.652 109.011 424.669 109.455H423.898Z" fill="black"/>
<path d="M310.159 116V107.273H313.104C313.672 107.273 314.145 107.372 314.523 107.571C314.903 107.77 315.189 108.041 315.379 108.385C315.57 108.729 315.665 109.119 315.665 109.557C315.665 109.92 315.604 110.232 315.482 110.49C315.359 110.749 315.193 110.957 314.983 111.116C314.773 111.276 314.538 111.391 314.28 111.462V111.53C314.561 111.55 314.834 111.649 315.098 111.828C315.362 112.004 315.58 112.251 315.75 112.57C315.92 112.888 316.006 113.268 316.006 113.712C316.006 114.152 315.908 114.545 315.712 114.892C315.516 115.236 315.214 115.507 314.808 115.706C314.405 115.902 313.891 116 313.266 116H310.159ZM310.956 115.284H313.266C313.939 115.284 314.436 115.135 314.757 114.837C315.081 114.538 315.243 114.163 315.243 113.712C315.243 113.379 315.162 113.078 315 112.808C314.841 112.536 314.615 112.32 314.322 112.161C314.033 112.001 313.692 111.922 313.3 111.922H310.956V115.284ZM310.956 111.214H313.176C313.52 111.214 313.821 111.143 314.08 111.001C314.338 110.859 314.54 110.663 314.685 110.413C314.83 110.163 314.902 109.878 314.902 109.557C314.902 109.094 314.751 108.717 314.45 108.428C314.149 108.135 313.7 107.989 313.104 107.989H310.956V111.214Z" fill="black"/>
<path d="M245.205 64.7546V55.3136H246.48V64.7546H245.205ZM241.118 60.668V59.4002H250.566V60.668H241.118Z" fill="black"/>
<path d="M98.9347 147.826V149.079H92.581V147.826H98.9347Z" fill="black"/>
<path d="M373.935 150.826V152.079H367.581V150.826H373.935Z" fill="black"/>
</svg>
