<svg width="426" height="230" viewBox="0 0 426 230" fill="none" xmlns="http://www.w3.org/2000/svg">
<path d="M40 30L37.1132 35L42.8868 35L40 30ZM39.5 34.5L39.5 210L40.5 210L40.5 34.5L39.5 34.5Z" fill="black"/>
<path d="M426 150L421 147.113L421 152.887L426 150ZM31 150.5L421.5 150.5L421.5 149.5L31 149.5L31 150.5Z" fill="black"/>
<line x1="190.5" y1="147" x2="190.5" y2="152" stroke="black"/>
<line x1="190.5" y1="30" x2="190.5" y2="210" stroke="#595959" stroke-dasharray="2 2"/>
<line x1="290.5" y1="30" x2="290.5" y2="210" stroke="#595959" stroke-dasharray="2 2"/>
<line x1="290.5" y1="148" x2="290.5" y2="153" stroke="black"/>
<path d="M177.172 146H176.337L179.511 137.273H180.364L183.538 146H182.703L179.967 138.308H179.908L177.172 146ZM177.773 142.655H182.102V143.371H177.773V142.655Z" fill="black"/>
<path d="M12.7969 42V41.3991L16.581 36.2259V36.1705H12.9588V35.4545H17.5568V36.081L13.8409 41.2287V41.2841H17.6932V42H12.7969ZM23.7028 42V42.7159H18.342V42H23.7028ZM26.9382 42.1193C26.4013 42.1193 25.9212 42.0227 25.4979 41.8295C25.0746 41.6335 24.7393 41.3622 24.4922 41.0156C24.245 40.669 24.1143 40.2699 24.1001 39.8182H24.9055C24.9197 40.1364 25.0178 40.4148 25.1996 40.6534C25.3814 40.8892 25.6229 41.0739 25.924 41.2074C26.2251 41.3381 26.5604 41.4034 26.9297 41.4034C27.3331 41.4034 27.6882 41.3281 27.995 41.1776C28.3047 41.027 28.5462 40.821 28.7195 40.5597C28.8956 40.2955 28.9837 39.9972 28.9837 39.6648C28.9837 39.3125 28.8942 39.0014 28.7152 38.7315C28.5362 38.4616 28.2791 38.2514 27.9439 38.1009C27.6115 37.9503 27.2138 37.875 26.7507 37.875H26.2393V37.1591H26.7507C27.1286 37.1591 27.4624 37.0909 27.7521 36.9545C28.0447 36.8153 28.2749 36.6207 28.4425 36.3707C28.6101 36.1207 28.6939 35.8267 28.6939 35.4886C28.6939 35.1676 28.6214 34.8849 28.4766 34.6406C28.3317 34.3963 28.1271 34.2045 27.8629 34.0653C27.6016 33.9261 27.2962 33.8565 26.9467 33.8565C26.6087 33.8565 26.299 33.9219 26.0178 34.0526C25.7365 34.1832 25.5092 34.3679 25.3359 34.6065C25.1655 34.8452 25.0746 35.1278 25.0632 35.4545H24.2919C24.3033 35 24.4283 34.6009 24.6669 34.2571C24.9084 33.9105 25.228 33.6406 25.6257 33.4474C26.0263 33.2514 26.4695 33.1534 26.9553 33.1534C27.4695 33.1534 27.9141 33.2585 28.2891 33.4688C28.6641 33.679 28.9538 33.9588 29.1584 34.3082C29.3658 34.6548 29.4695 35.0369 29.4695 35.4545C29.4695 35.9517 29.3345 36.3778 29.0646 36.733C28.7947 37.0852 28.4311 37.3295 27.9737 37.4659V37.5213C28.5305 37.6321 28.968 37.8793 29.2862 38.2628C29.6072 38.6435 29.7678 39.1108 29.7678 39.6648C29.7678 40.1307 29.6456 40.5497 29.4013 40.9219C29.157 41.2912 28.8217 41.5838 28.3956 41.7997C27.9723 42.0128 27.4865 42.1193 26.9382 42.1193Z" fill="black"/>
<path d="M423.898 139.455C423.849 138.969 423.635 138.582 423.254 138.295C422.874 138.009 422.395 137.865 421.818 137.865C421.412 137.865 421.054 137.935 420.744 138.074C420.438 138.213 420.196 138.406 420.02 138.653C419.847 138.898 419.76 139.176 419.76 139.489C419.76 139.719 419.81 139.92 419.909 140.094C420.009 140.267 420.142 140.416 420.31 140.541C420.48 140.663 420.668 140.768 420.872 140.857C421.08 140.945 421.288 141.018 421.499 141.078L422.419 141.342C422.697 141.419 422.976 141.517 423.254 141.636C423.533 141.756 423.787 141.906 424.017 142.088C424.25 142.267 424.436 142.487 424.575 142.749C424.717 143.007 424.788 143.318 424.788 143.682C424.788 144.148 424.668 144.567 424.426 144.939C424.185 145.311 423.838 145.607 423.386 145.825C422.935 146.041 422.393 146.149 421.763 146.149C421.169 146.149 420.653 146.051 420.216 145.855C419.778 145.656 419.435 145.382 419.185 145.033C418.935 144.683 418.794 144.278 418.763 143.818H419.581C419.609 144.162 419.723 144.453 419.922 144.692C420.121 144.93 420.379 145.112 420.697 145.237C421.016 145.359 421.371 145.42 421.763 145.42C422.197 145.42 422.584 145.348 422.922 145.203C423.263 145.055 423.53 144.851 423.723 144.589C423.919 144.325 424.017 144.018 424.017 143.669C424.017 143.374 423.94 143.126 423.787 142.928C423.634 142.726 423.419 142.557 423.143 142.42C422.871 142.284 422.554 142.163 422.193 142.058L421.149 141.751C420.464 141.547 419.933 141.264 419.555 140.903C419.178 140.543 418.989 140.082 418.989 139.523C418.989 139.054 419.114 138.642 419.364 138.287C419.616 137.929 419.957 137.651 420.386 137.452C420.818 137.25 421.303 137.149 421.839 137.149C422.382 137.149 422.862 137.249 423.28 137.447C423.697 137.646 424.028 137.92 424.273 138.27C424.52 138.616 424.652 139.011 424.669 139.455H423.898Z" fill="black"/>
<path d="M297.159 147V138.273H300.104C300.672 138.273 301.145 138.372 301.523 138.571C301.903 138.77 302.189 139.041 302.379 139.385C302.57 139.729 302.665 140.119 302.665 140.557C302.665 140.92 302.604 141.232 302.482 141.49C302.359 141.749 302.193 141.957 301.983 142.116C301.773 142.276 301.538 142.391 301.28 142.462V142.53C301.561 142.55 301.834 142.649 302.098 142.828C302.362 143.004 302.58 143.251 302.75 143.57C302.92 143.888 303.006 144.268 303.006 144.712C303.006 145.152 302.908 145.545 302.712 145.892C302.516 146.236 302.214 146.507 301.808 146.706C301.405 146.902 300.891 147 300.266 147H297.159ZM297.956 146.284H300.266C300.939 146.284 301.436 146.135 301.757 145.837C302.081 145.538 302.243 145.163 302.243 144.712C302.243 144.379 302.162 144.078 302 143.808C301.841 143.536 301.615 143.32 301.322 143.161C301.033 143.001 300.692 142.922 300.3 142.922H297.956V146.284ZM297.956 142.214H300.176C300.52 142.214 300.821 142.143 301.08 142.001C301.338 141.859 301.54 141.663 301.685 141.413C301.83 141.163 301.902 140.878 301.902 140.557C301.902 140.094 301.751 139.717 301.45 139.428C301.149 139.135 300.7 138.989 300.104 138.989H297.956V142.214Z" fill="black"/>
<path d="M240.205 93.7546V84.3136H241.48V93.7546H240.205ZM236.118 89.668V88.4002H245.566V89.668H236.118Z" fill="black"/>
<path d="M373.935 180.826V182.079H367.581V180.826H373.935Z" fill="black"/>
<path d="M92.9347 180.826V182.079H86.581V180.826H92.9347Z" fill="black"/>
<line x1="240.5" y1="152" x2="240.5" y2="147" stroke="black"/>
<line x1="340.5" y1="152" x2="340.5" y2="147" stroke="black"/>
<line x1="140.5" y1="152" x2="140.5" y2="147" stroke="black"/>
<line x1="90.5" y1="152" x2="90.5" y2="147" stroke="black"/>
<line x1="40.5" y1="152" x2="40.5" y2="147" stroke="black"/>
<line x1="40" y1="199.5" x2="140" y2="199.5" stroke="#FF0000"/>
<line x1="139.56" y1="199.763" x2="240.56" y2="11.7634" stroke="#FF0000"/>
<line x1="354.562" y1="220.24" x2="240.562" y2="12.2403" stroke="#FF0000"/>
<path d="M125.172 133H124.337L127.511 124.273H128.364L131.538 133H130.703L127.967 125.308H127.908L125.172 133ZM125.773 129.655H130.102V130.371H125.773V129.655ZM136.409 128.278V128.994H132.778V128.278H136.409ZM140.994 133.119C140.381 133.119 139.857 132.943 139.422 132.591C138.99 132.236 138.658 131.723 138.425 131.053C138.195 130.382 138.08 129.577 138.08 128.636C138.08 127.699 138.195 126.896 138.425 126.229C138.658 125.558 138.991 125.045 139.426 124.69C139.864 124.332 140.386 124.153 140.994 124.153C141.602 124.153 142.124 124.332 142.558 124.69C142.996 125.045 143.33 125.558 143.56 126.229C143.793 126.896 143.909 127.699 143.909 128.636C143.909 129.577 143.793 130.382 143.56 131.053C143.33 131.723 142.997 132.236 142.562 132.591C142.131 132.943 141.608 133.119 140.994 133.119ZM140.994 132.403C141.668 132.403 142.193 132.075 142.571 131.419C142.949 130.76 143.138 129.832 143.138 128.636C143.138 127.841 143.051 127.162 142.878 126.599C142.707 126.034 142.462 125.602 142.141 125.304C141.822 125.006 141.44 124.857 140.994 124.857C140.327 124.857 139.803 125.189 139.422 125.854C139.041 126.516 138.851 127.443 138.851 128.636C138.851 129.432 138.936 130.111 139.107 130.673C139.28 131.236 139.526 131.665 139.844 131.96C140.165 132.256 140.548 132.403 140.994 132.403ZM145.915 133.064C145.748 133.064 145.603 133.004 145.48 132.885C145.361 132.763 145.301 132.618 145.301 132.45C145.301 132.28 145.361 132.135 145.48 132.016C145.603 131.896 145.748 131.837 145.915 131.837C146.086 131.837 146.23 131.896 146.35 132.016C146.469 132.135 146.529 132.28 146.529 132.45C146.529 132.561 146.5 132.663 146.444 132.757C146.39 132.851 146.316 132.926 146.222 132.983C146.131 133.037 146.029 133.064 145.915 133.064ZM150.938 133.119C150.452 133.119 150.018 133.021 149.634 132.825C149.254 132.626 148.95 132.354 148.722 132.007C148.498 131.661 148.379 131.264 148.364 130.818H149.136C149.161 131.281 149.343 131.662 149.681 131.96C150.019 132.256 150.438 132.403 150.938 132.403C151.327 132.403 151.674 132.311 151.978 132.126C152.282 131.939 152.519 131.683 152.69 131.359C152.863 131.033 152.95 130.665 152.95 130.256C152.947 129.83 152.854 129.455 152.673 129.131C152.491 128.804 152.244 128.548 151.931 128.364C151.621 128.179 151.273 128.087 150.887 128.087C150.594 128.084 150.308 128.132 150.026 128.232C149.745 128.331 149.511 128.459 149.323 128.615L148.526 128.513L149.05 124.273H153.363V124.989H149.719L149.37 127.908H149.413C149.606 127.746 149.84 127.614 150.116 127.511C150.394 127.409 150.688 127.358 150.998 127.358C151.512 127.358 151.974 127.482 152.383 127.729C152.795 127.976 153.12 128.317 153.359 128.751C153.6 129.183 153.721 129.68 153.721 130.243C153.721 130.794 153.6 131.287 153.359 131.722C153.12 132.153 152.79 132.494 152.37 132.744C151.952 132.994 151.475 133.119 150.938 133.119Z" fill="black"/>
<path d="M332.159 133V124.273H335.104C335.672 124.273 336.145 124.372 336.523 124.571C336.903 124.77 337.189 125.041 337.379 125.385C337.57 125.729 337.665 126.119 337.665 126.557C337.665 126.92 337.604 127.232 337.482 127.49C337.359 127.749 337.193 127.957 336.983 128.116C336.773 128.276 336.538 128.391 336.28 128.462V128.53C336.561 128.55 336.834 128.649 337.098 128.828C337.362 129.004 337.58 129.251 337.75 129.57C337.92 129.888 338.006 130.268 338.006 130.712C338.006 131.152 337.908 131.545 337.712 131.892C337.516 132.236 337.214 132.507 336.808 132.706C336.405 132.902 335.891 133 335.266 133H332.159ZM332.956 132.284H335.266C335.939 132.284 336.436 132.135 336.757 131.837C337.081 131.538 337.243 131.163 337.243 130.712C337.243 130.379 337.162 130.078 337 129.808C336.841 129.536 336.615 129.32 336.322 129.161C336.033 129.001 335.692 128.922 335.3 128.922H332.956V132.284ZM332.956 128.214H335.176C335.52 128.214 335.821 128.143 336.08 128.001C336.338 127.859 336.54 127.663 336.685 127.413C336.83 127.163 336.902 126.878 336.902 126.557C336.902 126.094 336.751 125.717 336.45 125.428C336.149 125.135 335.7 124.989 335.104 124.989H332.956V128.214ZM342.315 131.347V125.947H343.044V131.347H342.315ZM339.98 129.011V128.283H345.379V129.011H339.98ZM350.268 133.119C349.654 133.119 349.13 132.943 348.695 132.591C348.263 132.236 347.931 131.723 347.698 131.053C347.468 130.382 347.353 129.577 347.353 128.636C347.353 127.699 347.468 126.896 347.698 126.229C347.931 125.558 348.265 125.045 348.7 124.69C349.137 124.332 349.66 124.153 350.268 124.153C350.876 124.153 351.397 124.332 351.832 124.69C352.269 125.045 352.603 125.558 352.833 126.229C353.066 126.896 353.183 127.699 353.183 128.636C353.183 129.577 353.066 130.382 352.833 131.053C352.603 131.723 352.271 132.236 351.836 132.591C351.404 132.943 350.881 133.119 350.268 133.119ZM350.268 132.403C350.941 132.403 351.467 132.075 351.844 131.419C352.222 130.76 352.411 129.832 352.411 128.636C352.411 127.841 352.325 127.162 352.151 126.599C351.981 126.034 351.735 125.602 351.414 125.304C351.096 125.006 350.714 124.857 350.268 124.857C349.6 124.857 349.076 125.189 348.695 125.854C348.315 126.516 348.124 127.443 348.124 128.636C348.124 129.432 348.21 130.111 348.38 130.673C348.553 131.236 348.799 131.665 349.117 131.96C349.438 132.256 349.822 132.403 350.268 132.403ZM355.189 133.064C355.021 133.064 354.876 133.004 354.754 132.885C354.635 132.763 354.575 132.618 354.575 132.45C354.575 132.28 354.635 132.135 354.754 132.016C354.876 131.896 355.021 131.837 355.189 131.837C355.359 131.837 355.504 131.896 355.623 132.016C355.743 132.135 355.802 132.28 355.802 132.45C355.802 132.561 355.774 132.663 355.717 132.757C355.663 132.851 355.589 132.926 355.495 132.983C355.404 133.037 355.302 133.064 355.189 133.064ZM360.212 133.119C359.726 133.119 359.291 133.021 358.908 132.825C358.527 132.626 358.223 132.354 357.996 132.007C357.771 131.661 357.652 131.264 357.638 130.818H358.409C358.435 131.281 358.616 131.662 358.955 131.96C359.293 132.256 359.712 132.403 360.212 132.403C360.601 132.403 360.947 132.311 361.251 132.126C361.555 131.939 361.793 131.683 361.963 131.359C362.136 131.033 362.223 130.665 362.223 130.256C362.22 129.83 362.128 129.455 361.946 129.131C361.764 128.804 361.517 128.548 361.205 128.364C360.895 128.179 360.547 128.087 360.161 128.087C359.868 128.084 359.581 128.132 359.3 128.232C359.018 128.331 358.784 128.459 358.597 128.615L357.8 128.513L358.324 124.273H362.636V124.989H358.993L358.643 127.908H358.686C358.879 127.746 359.114 127.614 359.389 127.511C359.668 127.409 359.962 127.358 360.271 127.358C360.786 127.358 361.247 127.482 361.656 127.729C362.068 127.976 362.393 128.317 362.632 128.751C362.874 129.183 362.994 129.68 362.994 130.243C362.994 130.794 362.874 131.287 362.632 131.722C362.393 132.153 362.064 132.494 361.643 132.744C361.226 132.994 360.749 133.119 360.212 133.119Z" fill="black"/>
<path d="M162.922 146.494C163.195 146.537 163.451 146.351 163.494 146.078L164.196 141.633C164.239 141.36 164.053 141.104 163.78 141.061C163.507 141.018 163.251 141.204 163.208 141.477L162.584 145.428L158.633 144.804C158.36 144.761 158.104 144.947 158.061 145.22C158.018 145.493 158.204 145.749 158.477 145.792L162.922 146.494ZM154.596 135.294L162.596 146.294L163.404 145.706L155.404 134.706L154.596 135.294Z" fill="#979797"/>
<path d="M319.5 147C319.5 147.276 319.724 147.5 320 147.5L324.5 147.5C324.776 147.5 325 147.276 325 147C325 146.724 324.776 146.5 324.5 146.5L320.5 146.5L320.5 142.5C320.5 142.224 320.276 142 320 142C319.724 142 319.5 142.224 319.5 142.5L319.5 147ZM330.646 135.646L319.646 146.646L320.354 147.354L331.354 136.354L330.646 135.646Z" fill="#979797"/>
</svg>
