<svg width="470" height="201" viewBox="0 0 470 201" fill="none" xmlns="http://www.w3.org/2000/svg">
<path d="M34 20L214 125" stroke="#505050" stroke-width="0.5"/>
<path d="M34 54L214 125" stroke="#505050" stroke-width="0.5"/>
<path d="M34 88L214 125" stroke="#505050" stroke-width="0.5"/>
<path d="M34 122L214 125" stroke="#505050" stroke-width="0.5"/>
<path d="M34 156L214 125" stroke="#505050" stroke-width="0.5"/>
<path d="M34 190L214 125" stroke="#505050" stroke-width="0.5"/>
<path d="M214 85L394 105" stroke="#505050" stroke-width="0.5"/>
<path d="M214 125L394 105" stroke="#505050" stroke-width="0.5"/>
<path d="M34 20L214 85" stroke="#505050" stroke-width="0.5"/>
<path d="M34 54L214 85" stroke="#505050" stroke-width="0.5"/>
<path d="M34 88L214 85" stroke="#505050" stroke-width="0.5"/>
<path d="M34 122L214 85" stroke="#505050" stroke-width="0.5"/>
<path d="M34 156L214 85" stroke="#505050" stroke-width="0.5"/>
<path d="M34 190L214 85" stroke="#505050" stroke-width="0.5"/>
<path d="M34 30C39.5228 30 44 25.5228 44 20C44 14.4772 39.5228 10 34 10C28.4772 10 24 14.4772 24 20C24 25.5228 28.4772 30 34 30Z" fill="white" stroke="#333333"/>
<path d="M34 64C39.5228 64 44 59.5228 44 54C44 48.4772 39.5228 44 34 44C28.4772 44 24 48.4772 24 54C24 59.5228 28.4772 64 34 64Z" fill="white" stroke="#333333"/>
<path d="M34 98C39.5228 98 44 93.5228 44 88C44 82.4772 39.5228 78 34 78C28.4772 78 24 82.4772 24 88C24 93.5228 28.4772 98 34 98Z" fill="white" stroke="#333333"/>
<path d="M34 132C39.5228 132 44 127.523 44 122C44 116.477 39.5228 112 34 112C28.4772 112 24 116.477 24 122C24 127.523 28.4772 132 34 132Z" fill="white" stroke="#333333"/>
<path d="M34 166C39.5228 166 44 161.523 44 156C44 150.477 39.5228 146 34 146C28.4772 146 24 150.477 24 156C24 161.523 28.4772 166 34 166Z" fill="white" stroke="#333333"/>
<path d="M34 200C39.5228 200 44 195.523 44 190C44 184.477 39.5228 180 34 180C28.4772 180 24 184.477 24 190C24 195.523 28.4772 200 34 200Z" fill="white" stroke="#333333"/>
<path d="M214 95C219.523 95 224 90.5228 224 85C224 79.4772 219.523 75 214 75C208.477 75 204 79.4772 204 85C204 90.5228 208.477 95 214 95Z" fill="white" stroke="#333333"/>
<path d="M214 135C219.523 135 224 130.523 224 125C224 119.477 219.523 115 214 115C208.477 115 204 119.477 204 125C204 130.523 208.477 135 214 135Z" fill="white" stroke="#333333"/>
<path d="M394 115C399.523 115 404 110.523 404 105C404 99.4772 399.523 95 394 95C388.477 95 384 99.4772 384 105C384 110.523 388.477 115 394 115Z" fill="white" stroke="#333333"/>
<path d="M30.5033 106.222C30.293 106.222 30.1126 106.147 29.9621 105.997C29.8115 105.846 29.7362 105.666 29.7362 105.455C29.7362 105.245 29.8115 105.065 29.9621 104.914C30.1126 104.764 30.293 104.688 30.5033 104.688C30.7135 104.688 30.8939 104.764 31.0445 104.914C31.195 105.065 31.2703 105.245 31.2703 105.455C31.2703 105.595 31.2348 105.722 31.1638 105.839C31.0956 105.955 31.0033 106.049 30.8868 106.12C30.7731 106.188 30.6453 106.222 30.5033 106.222ZM33.808 106.222C33.5977 106.222 33.4173 106.147 33.2668 105.997C33.1162 105.846 33.0409 105.666 33.0409 105.455C33.0409 105.245 33.1162 105.065 33.2668 104.914C33.4173 104.764 33.5977 104.688 33.808 104.688C34.0182 104.688 34.1986 104.764 34.3491 104.914C34.4997 105.065 34.575 105.245 34.575 105.455C34.575 105.595 34.5395 105.722 34.4685 105.839C34.4003 105.955 34.308 106.049 34.1915 106.12C34.0778 106.188 33.95 106.222 33.808 106.222ZM37.1126 106.222C36.9024 106.222 36.722 106.147 36.5714 105.997C36.4209 105.846 36.3456 105.666 36.3456 105.455C36.3456 105.245 36.4209 105.065 36.5714 104.914C36.722 104.764 36.9024 104.688 37.1126 104.688C37.3229 104.688 37.5033 104.764 37.6538 104.914C37.8044 105.065 37.8797 105.245 37.8797 105.455C37.8797 105.595 37.8442 105.722 37.7731 105.839C37.705 105.955 37.6126 106.049 37.4962 106.12C37.3825 106.188 37.2547 106.222 37.1126 106.222Z" fill="black"/>
<path d="M236.123 71.5341C235.342 71.5341 234.658 71.4322 234.072 71.2283C233.485 71.0295 232.99 70.756 232.588 70.408C232.185 70.06 231.872 69.6697 231.648 69.2372L232.737 68.5213C232.901 68.8097 233.12 69.093 233.393 69.3714C233.672 69.6499 234.032 69.881 234.474 70.065C234.922 70.2489 235.471 70.3409 236.123 70.3409C237.137 70.3409 237.955 70.0874 238.576 69.5803C239.202 69.0732 239.516 68.2852 239.516 67.2163V64.636H239.396C239.242 64.984 239.021 65.332 238.733 65.68C238.444 66.0231 238.066 66.3089 237.599 66.5376C237.137 66.7663 236.563 66.8807 235.876 66.8807C234.962 66.8807 234.149 66.6545 233.438 66.2021C232.732 65.7496 232.175 65.1033 231.767 64.2631C231.365 63.418 231.163 62.4112 231.163 61.2429C231.163 60.0845 231.36 59.0653 231.752 58.1854C232.15 57.3054 232.705 56.6193 233.415 56.1271C234.126 55.6349 234.954 55.3888 235.899 55.3888C236.6 55.3888 237.181 55.5131 237.644 55.7617C238.106 56.0053 238.477 56.3086 238.755 56.6715C239.038 57.0344 239.26 57.3874 239.419 57.7305H239.553V55.5455H240.85V67.2983C240.85 68.2678 240.644 69.0657 240.232 69.6921C239.819 70.3185 239.257 70.7809 238.546 71.0792C237.835 71.3825 237.027 71.5341 236.123 71.5341ZM236.033 65.6651C236.769 65.6651 237.398 65.4886 237.92 65.1357C238.442 64.7777 238.842 64.2656 239.12 63.5994C239.399 62.9332 239.538 62.1403 239.538 61.2205C239.538 60.3256 239.401 59.5327 239.128 58.8416C238.854 58.1456 238.457 57.5987 237.935 57.201C237.418 56.7983 236.784 56.5969 236.033 56.5969C235.267 56.5969 234.621 56.8033 234.094 57.2159C233.567 57.6286 233.169 58.1854 232.901 58.8864C232.632 59.5824 232.498 60.3604 232.498 61.2205C232.498 62.0955 232.635 62.8686 232.908 63.5398C233.182 64.206 233.582 64.728 234.109 65.1058C234.636 65.4787 235.277 65.6651 236.033 65.6651ZM245.841 69.625V61.7202H245.767L243.485 63.234V61.9961L245.782 60.4673H247.035V69.625H245.841ZM251.213 60.5568C251.213 58.767 251.439 57.0767 251.891 55.4858C252.344 53.8949 252.992 52.4034 253.838 51.0114H255.046C254.683 51.598 254.35 52.2617 254.046 53.0025C253.748 53.7433 253.49 54.5337 253.271 55.3739C253.052 56.2141 252.883 57.0742 252.764 57.9542C252.644 58.8292 252.585 59.6967 252.585 60.5568C252.585 61.7053 252.689 62.8636 252.898 64.032C253.107 65.2003 253.395 66.3089 253.763 67.358C254.136 68.407 254.563 69.3217 255.046 70.1023H253.838C252.992 68.7053 252.344 67.2113 251.891 65.6204C251.439 64.0295 251.213 62.3416 251.213 60.5568ZM257.583 67V65.9485L264.205 56.8952V56.7983H257.866V55.5455H265.913V56.6417L259.41 65.6502V65.7472H266.152V67H257.583ZM270.553 69.625V61.7202H270.479L268.197 63.234V61.9961L270.494 60.4673H271.746V69.625H270.553ZM278.594 60.5568C278.594 62.3466 278.368 64.0369 277.916 65.6278C277.463 67.2188 276.814 68.7102 275.969 70.1023H274.761C275.124 69.5156 275.455 68.8519 275.753 68.1112C276.056 67.3704 276.317 66.5799 276.536 65.7397C276.755 64.8995 276.924 64.0394 277.043 63.1594C277.162 62.2795 277.222 61.4119 277.222 60.5568C277.222 59.4084 277.118 58.25 276.909 57.0817C276.7 55.9134 276.409 54.8047 276.036 53.7557C275.668 52.7067 275.243 51.7919 274.761 51.0114H275.969C276.814 52.4084 277.463 53.9023 277.916 55.4933C278.368 57.0842 278.594 58.772 278.594 60.5568Z" fill="black"/>
<path d="M3.25888 8.54545L5.78693 13.005L8.33736 8.54545H10.7759L7.20384 14.2727L10.8058 20H8.36719L5.78693 15.7195L3.21413 20H0.768111L4.33274 14.2727L0.812855 8.54545H3.25888Z" fill="black"/>
<path d="M172.982 59L169.612 47.5455H171.916L174.161 55.9574H174.272L176.525 47.5455H178.829L181.066 55.9201H181.178L183.408 47.5455H185.712L182.349 59H180.074L177.748 50.7298H177.576L175.249 59H172.982ZM189.513 61.625V54.2422H189.446L187.142 55.7486V54.0408L189.551 52.4673H191.273V61.625H189.513Z" fill="black"/>
<path d="M172.982 161L169.612 149.545H171.916L174.161 157.957H174.272L176.525 149.545H178.829L181.066 157.92H181.178L183.408 149.545H185.712L182.349 161H180.074L177.748 152.73H177.576L175.249 161H172.982ZM187.328 163.625V162.298L190.871 159.262C191.194 158.984 191.467 158.733 191.691 158.509C191.915 158.286 192.084 158.067 192.198 157.853C192.317 157.634 192.377 157.401 192.377 157.152C192.377 156.734 192.213 156.406 191.885 156.168C191.562 155.924 191.161 155.802 190.684 155.802C190.177 155.802 189.769 155.934 189.461 156.197C189.153 156.461 188.999 156.814 188.999 157.256H187.231C187.231 156.371 187.557 155.665 188.208 155.138C188.86 154.612 189.695 154.348 190.714 154.348C191.4 154.348 191.999 154.47 192.511 154.713C193.023 154.957 193.421 155.288 193.704 155.705C193.993 156.123 194.137 156.595 194.137 157.122C194.137 157.54 194.052 157.928 193.883 158.286C193.714 158.643 193.451 159.006 193.093 159.374C192.735 159.742 192.275 160.15 191.713 160.597L189.983 162.059V162.126H194.353V163.625H187.328Z" fill="black"/>
<path d="M351.982 92L348.612 80.5455H350.916L353.161 88.9574H353.272L355.525 80.5455H357.829L360.066 88.9201H360.178L362.408 80.5455H364.712L361.349 92H359.074L356.748 83.7298H356.576L354.249 92H351.982ZM369.871 94.7443C369.16 94.7443 368.526 94.6275 367.969 94.3938C367.417 94.1651 366.98 93.8469 366.657 93.4393C366.333 93.0366 366.164 92.5668 366.149 92.0298H368.029C368.044 92.3928 368.225 92.6811 368.573 92.8949C368.926 93.1087 369.359 93.2156 369.871 93.2156C370.408 93.2156 370.853 93.0962 371.206 92.8576C371.559 92.6239 371.735 92.3132 371.735 91.9254C371.735 91.5476 371.549 91.2369 371.176 90.9933C370.808 90.7496 370.306 90.6278 369.669 90.6278H368.827V89.2706H369.669C370.191 89.2706 370.624 89.1562 370.967 88.9276C371.31 88.6989 371.481 88.3956 371.481 88.0178C371.481 87.6648 371.335 87.3739 371.041 87.1452C370.753 86.9165 370.373 86.8022 369.9 86.8022C369.418 86.8022 369.006 86.9141 368.663 87.1378C368.32 87.3615 368.141 87.6573 368.126 88.0252H366.358C366.368 87.4933 366.53 87.0284 366.843 86.6307C367.161 86.228 367.586 85.9148 368.118 85.6911C368.65 85.4624 369.247 85.348 369.908 85.348C370.574 85.348 371.158 85.4599 371.66 85.6836C372.168 85.9073 372.563 86.2131 372.846 86.6009C373.134 86.9886 373.279 87.4261 373.279 87.9134C373.279 88.4503 373.092 88.8878 372.719 89.2259C372.351 89.5589 371.902 89.7678 371.37 89.8523V89.9194C372.1 90.0089 372.662 90.2475 373.055 90.6353C373.448 91.0231 373.644 91.4979 373.644 92.0597C373.644 92.5767 373.483 93.0366 373.159 93.4393C372.836 93.8469 372.389 94.1651 371.817 94.3938C371.25 94.6275 370.601 94.7443 369.871 94.7443Z" fill="black"/>
<path d="M230.123 170.534C229.342 170.534 228.658 170.432 228.072 170.228C227.485 170.029 226.99 169.756 226.588 169.408C226.185 169.06 225.872 168.67 225.648 168.237L226.737 167.521C226.901 167.81 227.12 168.093 227.393 168.371C227.672 168.65 228.032 168.881 228.474 169.065C228.922 169.249 229.471 169.341 230.123 169.341C231.137 169.341 231.955 169.087 232.576 168.58C233.202 168.073 233.516 167.285 233.516 166.216V163.636H233.396C233.242 163.984 233.021 164.332 232.733 164.68C232.444 165.023 232.066 165.309 231.599 165.538C231.137 165.766 230.563 165.881 229.876 165.881C228.962 165.881 228.149 165.654 227.438 165.202C226.732 164.75 226.175 164.103 225.767 163.263C225.365 162.418 225.163 161.411 225.163 160.243C225.163 159.085 225.36 158.065 225.752 157.185C226.15 156.305 226.705 155.619 227.415 155.127C228.126 154.635 228.954 154.389 229.899 154.389C230.6 154.389 231.181 154.513 231.644 154.762C232.106 155.005 232.477 155.309 232.755 155.672C233.038 156.034 233.26 156.387 233.419 156.73H233.553V154.545H234.85V166.298C234.85 167.268 234.644 168.066 234.232 168.692C233.819 169.319 233.257 169.781 232.546 170.079C231.835 170.382 231.027 170.534 230.123 170.534ZM230.033 164.665C230.769 164.665 231.398 164.489 231.92 164.136C232.442 163.778 232.842 163.266 233.12 162.599C233.399 161.933 233.538 161.14 233.538 160.221C233.538 159.326 233.401 158.533 233.128 157.842C232.854 157.146 232.457 156.599 231.935 156.201C231.418 155.798 230.784 155.597 230.033 155.597C229.267 155.597 228.621 155.803 228.094 156.216C227.567 156.629 227.169 157.185 226.901 157.886C226.632 158.582 226.498 159.36 226.498 160.221C226.498 161.096 226.635 161.869 226.908 162.54C227.182 163.206 227.582 163.728 228.109 164.106C228.636 164.479 229.277 164.665 230.033 164.665ZM237.723 168.625V167.73L241.146 164.516C241.534 164.148 241.852 163.827 242.101 163.554C242.35 163.276 242.533 163.012 242.653 162.763C242.777 162.515 242.839 162.251 242.839 161.973C242.839 161.486 242.653 161.093 242.28 160.795C241.907 160.491 241.442 160.34 240.885 160.34C240.299 160.34 239.826 160.504 239.468 160.832C239.111 161.155 238.932 161.565 238.932 162.062H237.738C237.738 161.262 238.034 160.611 238.626 160.109C239.222 159.602 239.983 159.348 240.908 159.348C241.519 159.348 242.059 159.462 242.526 159.691C242.998 159.92 243.366 160.23 243.63 160.623C243.898 161.016 244.032 161.458 244.032 161.951C244.032 162.338 243.955 162.701 243.801 163.039C243.652 163.373 243.411 163.728 243.078 164.106C242.745 164.479 242.307 164.919 241.765 165.426L239.506 167.551V167.603H244.375V168.625H237.723ZM247.694 159.557C247.694 157.767 247.92 156.077 248.373 154.486C248.825 152.895 249.474 151.403 250.319 150.011H251.527C251.164 150.598 250.831 151.262 250.528 152.002C250.229 152.743 249.971 153.534 249.752 154.374C249.533 155.214 249.364 156.074 249.245 156.954C249.126 157.829 249.066 158.697 249.066 159.557C249.066 160.705 249.171 161.864 249.379 163.032C249.588 164.2 249.877 165.309 250.244 166.358C250.617 167.407 251.045 168.322 251.527 169.102H250.319C249.474 167.705 248.825 166.211 248.373 164.62C247.92 163.029 247.694 161.342 247.694 159.557ZM254.064 166V164.949L260.687 155.895V155.798H254.348V154.545H262.394V155.642L255.892 164.65V164.747H262.633V166H254.064ZM264.917 168.625V167.73L268.34 164.516C268.728 164.148 269.046 163.827 269.294 163.554C269.543 163.276 269.727 163.012 269.846 162.763C269.97 162.515 270.033 162.251 270.033 161.973C270.033 161.486 269.846 161.093 269.473 160.795C269.1 160.491 268.636 160.34 268.079 160.34C267.492 160.34 267.02 160.504 266.662 160.832C266.304 161.155 266.125 161.565 266.125 162.062H264.932C264.932 161.262 265.228 160.611 265.819 160.109C266.416 159.602 267.176 159.348 268.101 159.348C268.713 159.348 269.252 159.462 269.719 159.691C270.192 159.92 270.56 160.23 270.823 160.623C271.092 161.016 271.226 161.458 271.226 161.951C271.226 162.338 271.149 162.701 270.995 163.039C270.845 163.373 270.604 163.728 270.271 164.106C269.938 164.479 269.501 164.919 268.959 165.426L266.699 167.551V167.603H271.569V168.625H264.917ZM277.557 159.557C277.557 161.347 277.331 163.037 276.878 164.628C276.426 166.219 275.777 167.71 274.932 169.102H273.724C274.087 168.516 274.418 167.852 274.716 167.111C275.019 166.37 275.28 165.58 275.499 164.74C275.718 163.9 275.887 163.039 276.006 162.159C276.125 161.279 276.185 160.412 276.185 159.557C276.185 158.408 276.081 157.25 275.872 156.082C275.663 154.913 275.372 153.805 274.999 152.756C274.631 151.707 274.206 150.792 273.724 150.011H274.932C275.777 151.408 276.426 152.902 276.878 154.493C277.331 156.084 277.557 157.772 277.557 159.557Z" fill="black"/>
<path d="M419.123 117.534C418.342 117.534 417.658 117.432 417.072 117.228C416.485 117.029 415.99 116.756 415.588 116.408C415.185 116.06 414.872 115.67 414.648 115.237L415.737 114.521C415.901 114.81 416.12 115.093 416.393 115.371C416.672 115.65 417.032 115.881 417.474 116.065C417.922 116.249 418.471 116.341 419.123 116.341C420.137 116.341 420.955 116.087 421.576 115.58C422.202 115.073 422.516 114.285 422.516 113.216V110.636H422.396C422.242 110.984 422.021 111.332 421.733 111.68C421.444 112.023 421.066 112.309 420.599 112.538C420.137 112.766 419.563 112.881 418.876 112.881C417.962 112.881 417.149 112.654 416.438 112.202C415.732 111.75 415.175 111.103 414.767 110.263C414.365 109.418 414.163 108.411 414.163 107.243C414.163 106.085 414.36 105.065 414.752 104.185C415.15 103.305 415.705 102.619 416.415 102.127C417.126 101.635 417.954 101.389 418.899 101.389C419.6 101.389 420.181 101.513 420.644 101.762C421.106 102.005 421.477 102.309 421.755 102.672C422.038 103.034 422.26 103.387 422.419 103.73H422.553V101.545H423.85V113.298C423.85 114.268 423.644 115.066 423.232 115.692C422.819 116.319 422.257 116.781 421.546 117.079C420.835 117.382 420.027 117.534 419.123 117.534ZM419.033 111.665C419.769 111.665 420.398 111.489 420.92 111.136C421.442 110.778 421.842 110.266 422.12 109.599C422.399 108.933 422.538 108.14 422.538 107.221C422.538 106.326 422.401 105.533 422.128 104.842C421.854 104.146 421.457 103.599 420.935 103.201C420.418 102.798 419.784 102.597 419.033 102.597C418.267 102.597 417.621 102.803 417.094 103.216C416.567 103.629 416.169 104.185 415.901 104.886C415.632 105.582 415.498 106.36 415.498 107.221C415.498 108.096 415.635 108.869 415.908 109.54C416.182 110.206 416.582 110.728 417.109 111.106C417.636 111.479 418.277 111.665 419.033 111.665ZM430.064 115.744C429.413 115.744 428.829 115.632 428.312 115.409C427.8 115.19 427.392 114.884 427.089 114.491C426.786 114.104 426.631 113.656 426.627 113.149H427.879C427.889 113.612 428.103 113.984 428.521 114.268C428.938 114.556 429.453 114.7 430.064 114.7C430.711 114.7 431.24 114.544 431.653 114.23C432.065 113.917 432.272 113.525 432.272 113.052C432.272 112.57 432.048 112.175 431.601 111.866C431.153 111.553 430.562 111.397 429.826 111.397H429.244V110.457H429.826C430.437 110.457 430.949 110.315 431.362 110.032C431.78 109.749 431.988 109.366 431.988 108.884C431.988 108.441 431.812 108.073 431.459 107.78C431.106 107.487 430.646 107.34 430.079 107.34C429.517 107.34 429.038 107.484 428.64 107.772C428.247 108.061 428.043 108.444 428.028 108.921H426.843C426.853 108.414 426.999 107.966 427.283 107.578C427.571 107.191 427.956 106.89 428.439 106.676C428.926 106.457 429.473 106.348 430.079 106.348C430.691 106.348 431.23 106.455 431.698 106.669C432.17 106.882 432.538 107.178 432.801 107.556C433.065 107.929 433.196 108.352 433.196 108.824C433.196 109.361 433.017 109.808 432.66 110.166C432.302 110.519 431.852 110.748 431.31 110.852V110.912C432.016 111.026 432.563 111.285 432.95 111.688C433.343 112.09 433.54 112.57 433.54 113.127C433.54 113.624 433.39 114.069 433.092 114.462C432.794 114.859 432.384 115.173 431.862 115.401C431.34 115.63 430.741 115.744 430.064 115.744ZM436.817 106.557C436.817 104.767 437.043 103.077 437.496 101.486C437.948 99.8949 438.597 98.4034 439.442 97.0114H440.65C440.287 97.598 439.954 98.2617 439.651 99.0025C439.353 99.7433 439.094 100.534 438.875 101.374C438.657 102.214 438.487 103.074 438.368 103.954C438.249 104.829 438.189 105.697 438.189 106.557C438.189 107.705 438.294 108.864 438.502 110.032C438.711 111.2 439 112.309 439.367 113.358C439.74 114.407 440.168 115.322 440.65 116.102H439.442C438.597 114.705 437.948 113.211 437.496 111.62C437.043 110.029 436.817 108.342 436.817 106.557ZM443.188 113V111.949L449.81 102.895V102.798H443.471V101.545H451.517V102.642L445.015 111.65V111.747H451.756V113H443.188ZM457.381 115.744C456.729 115.744 456.145 115.632 455.628 115.409C455.116 115.19 454.709 114.884 454.405 114.491C454.102 114.104 453.948 113.656 453.943 113.149H455.196C455.206 113.612 455.419 113.984 455.837 114.268C456.255 114.556 456.769 114.7 457.381 114.7C458.027 114.7 458.557 114.544 458.969 114.23C459.382 113.917 459.588 113.525 459.588 113.052C459.588 112.57 459.364 112.175 458.917 111.866C458.47 111.553 457.878 111.397 457.142 111.397H456.56V110.457H457.142C457.754 110.457 458.266 110.315 458.678 110.032C459.096 109.749 459.305 109.366 459.305 108.884C459.305 108.441 459.128 108.073 458.775 107.78C458.422 107.487 457.962 107.34 457.396 107.34C456.834 107.34 456.354 107.484 455.956 107.772C455.564 108.061 455.36 108.444 455.345 108.921H454.159C454.169 108.414 454.316 107.966 454.599 107.578C454.888 107.191 455.273 106.89 455.755 106.676C456.242 106.457 456.789 106.348 457.396 106.348C458.007 106.348 458.547 106.455 459.014 106.669C459.486 106.882 459.854 107.178 460.118 107.556C460.381 107.929 460.513 108.352 460.513 108.824C460.513 109.361 460.334 109.808 459.976 110.166C459.618 110.519 459.168 110.748 458.626 110.852V110.912C459.332 111.026 459.879 111.285 460.267 111.688C460.66 112.09 460.856 112.57 460.856 113.127C460.856 113.624 460.707 114.069 460.408 114.462C460.11 114.859 459.7 115.173 459.178 115.401C458.656 115.63 458.057 115.744 457.381 115.744ZM466.803 106.557C466.803 108.347 466.577 110.037 466.125 111.628C465.672 113.219 465.023 114.71 464.178 116.102H462.97C463.333 115.516 463.664 114.852 463.962 114.111C464.265 113.37 464.526 112.58 464.745 111.74C464.964 110.9 465.133 110.039 465.252 109.159C465.371 108.279 465.431 107.412 465.431 106.557C465.431 105.408 465.327 104.25 465.118 103.082C464.909 101.913 464.618 100.805 464.245 99.7557C463.877 98.7067 463.452 97.7919 462.97 97.0114H464.178C465.023 98.4084 465.672 99.9023 466.125 101.493C466.577 103.084 466.803 104.772 466.803 106.557Z" fill="black"/>
</svg>
