<svg width="470" height="201" viewBox="0 0 470 201" fill="none" xmlns="http://www.w3.org/2000/svg">
<path d="M34 20L214 125" stroke="#505050" stroke-width="0.5"/>
<path d="M34 54L214 125" stroke="#505050" stroke-width="0.5"/>
<path d="M34 88L214 125" stroke="#505050" stroke-width="0.5"/>
<path d="M34 122L214 125" stroke="#505050" stroke-width="0.5"/>
<path d="M34 156L214 125" stroke="#505050" stroke-width="0.5"/>
<path d="M34 190L214 125" stroke="#505050" stroke-width="0.5"/>
<path d="M214 85L394 105" stroke="#505050" stroke-width="0.5"/>
<path d="M214 125L394 105" stroke="#505050" stroke-width="0.5"/>
<path d="M34 20L214 85" stroke="#505050" stroke-width="0.5"/>
<path d="M34 54L214 85" stroke="#505050" stroke-width="0.5"/>
<path d="M34 88L214 85" stroke="#505050" stroke-width="0.5"/>
<path d="M34 122L214 85" stroke="#505050" stroke-width="0.5"/>
<path d="M34 156L214 85" stroke="#505050" stroke-width="0.5"/>
<path d="M34 190L214 85" stroke="#505050" stroke-width="0.5"/>
<path d="M34 30C39.5228 30 44 25.5228 44 20C44 14.4772 39.5228 10 34 10C28.4772 10 24 14.4772 24 20C24 25.5228 28.4772 30 34 30Z" fill="white" stroke="#333333"/>
<path d="M34 64C39.5228 64 44 59.5228 44 54C44 48.4772 39.5228 44 34 44C28.4772 44 24 48.4772 24 54C24 59.5228 28.4772 64 34 64Z" fill="white" stroke="#333333"/>
<path d="M34 98C39.5228 98 44 93.5228 44 88C44 82.4772 39.5228 78 34 78C28.4772 78 24 82.4772 24 88C24 93.5228 28.4772 98 34 98Z" fill="white" stroke="#333333"/>
<path d="M34 132C39.5228 132 44 127.523 44 122C44 116.477 39.5228 112 34 112C28.4772 112 24 116.477 24 122C24 127.523 28.4772 132 34 132Z" fill="white" stroke="#333333"/>
<path d="M34 166C39.5228 166 44 161.523 44 156C44 150.477 39.5228 146 34 146C28.4772 146 24 150.477 24 156C24 161.523 28.4772 166 34 166Z" fill="white" stroke="#333333"/>
<path d="M34 200C39.5228 200 44 195.523 44 190C44 184.477 39.5228 180 34 180C28.4772 180 24 184.477 24 190C24 195.523 28.4772 200 34 200Z" fill="white" stroke="#333333"/>
<path d="M214 95C219.523 95 224 90.5228 224 85C224 79.4772 219.523 75 214 75C208.477 75 204 79.4772 204 85C204 90.5228 208.477 95 214 95Z" fill="white" stroke="#333333"/>
<path d="M214 135C219.523 135 224 130.523 224 125C224 119.477 219.523 115 214 115C208.477 115 204 119.477 204 125C204 130.523 208.477 135 214 135Z" fill="white" stroke="#333333"/>
<path d="M394 115C399.523 115 404 110.523 404 105C404 99.4772 399.523 95 394 95C388.477 95 384 99.4772 384 105C384 110.523 388.477 115 394 115Z" fill="white" stroke="#333333"/>
<path d="M30.5033 106.222C30.293 106.222 30.1126 106.147 29.9621 105.997C29.8115 105.846 29.7362 105.666 29.7362 105.455C29.7362 105.245 29.8115 105.065 29.9621 104.914C30.1126 104.764 30.293 104.688 30.5033 104.688C30.7135 104.688 30.8939 104.764 31.0445 104.914C31.195 105.065 31.2703 105.245 31.2703 105.455C31.2703 105.595 31.2348 105.722 31.1638 105.839C31.0956 105.955 31.0033 106.049 30.8868 106.12C30.7731 106.188 30.6453 106.222 30.5033 106.222ZM33.808 106.222C33.5977 106.222 33.4173 106.147 33.2668 105.997C33.1162 105.846 33.0409 105.666 33.0409 105.455C33.0409 105.245 33.1162 105.065 33.2668 104.914C33.4173 104.764 33.5977 104.688 33.808 104.688C34.0182 104.688 34.1986 104.764 34.3491 104.914C34.4997 105.065 34.575 105.245 34.575 105.455C34.575 105.595 34.5395 105.722 34.4685 105.839C34.4003 105.955 34.308 106.049 34.1915 106.12C34.0778 106.188 33.95 106.222 33.808 106.222ZM37.1126 106.222C36.9024 106.222 36.722 106.147 36.5714 105.997C36.4209 105.846 36.3456 105.666 36.3456 105.455C36.3456 105.245 36.4209 105.065 36.5714 104.914C36.722 104.764 36.9024 104.688 37.1126 104.688C37.3229 104.688 37.5033 104.764 37.6538 104.914C37.8044 105.065 37.8797 105.245 37.8797 105.455C37.8797 105.595 37.8442 105.722 37.7731 105.839C37.705 105.955 37.6126 106.049 37.4962 106.12C37.3825 106.188 37.2547 106.222 37.1126 106.222Z" fill="black"/>
<path d="M227.08 59.8409V67H225.752V51.7273H227.08V57.3427H227.199C227.468 56.7511 227.883 56.2788 228.445 55.9258C229.011 55.5728 229.727 55.3963 230.592 55.3963C231.368 55.3963 232.049 55.5554 232.636 55.8736C233.222 56.1918 233.68 56.6616 234.008 57.283C234.336 57.9045 234.5 58.6701 234.5 59.5799V67H233.165V59.6619C233.165 58.7173 232.902 57.9741 232.375 57.4322C231.853 56.8853 231.147 56.6119 230.257 56.6119C229.645 56.6119 229.101 56.7411 228.624 56.9996C228.146 57.2582 227.768 57.631 227.49 58.1183C227.217 58.6005 227.08 59.1747 227.08 59.8409ZM239.472 69.625V61.7202H239.398L237.116 63.234V61.9961L239.413 60.4673H240.665V69.625H239.472ZM244.843 60.5568C244.843 58.767 245.07 57.0767 245.522 55.4858C245.974 53.8949 246.623 52.4034 247.468 51.0114H248.676C248.314 51.598 247.98 52.2617 247.677 53.0025C247.379 53.7433 247.12 54.5337 246.902 55.3739C246.683 56.2141 246.514 57.0742 246.395 57.9542C246.275 58.8292 246.216 59.6967 246.216 60.5568C246.216 61.7053 246.32 62.8636 246.529 64.032C246.738 65.2003 247.026 66.3089 247.394 67.358C247.767 68.407 248.194 69.3217 248.676 70.1023H247.468C246.623 68.7053 245.974 67.2113 245.522 65.6204C245.07 64.0295 244.843 62.3416 244.843 60.5568ZM251.214 67V65.9485L257.836 56.8952V56.7983H251.497V55.5455H259.544V56.6417L253.041 65.6502V65.7472H259.782V67H251.214ZM264.184 69.625V61.7202H264.11L261.828 63.234V61.9961L264.124 60.4673H265.377V69.625H264.184ZM272.225 60.5568C272.225 62.3466 271.999 64.0369 271.546 65.6278C271.094 67.2188 270.445 68.7102 269.6 70.1023H268.392C268.755 69.5156 269.085 68.8519 269.384 68.1112C269.687 67.3704 269.948 66.5799 270.167 65.7397C270.386 64.8995 270.555 64.0394 270.674 63.1594C270.793 62.2795 270.853 61.4119 270.853 60.5568C270.853 59.4084 270.748 58.25 270.54 57.0817C270.331 55.9134 270.04 54.8047 269.667 53.7557C269.299 52.7067 268.874 51.7919 268.392 51.0114H269.6C270.445 52.4084 271.094 53.9023 271.546 55.4933C271.999 57.0842 272.225 58.772 272.225 60.5568Z" fill="black"/>
<path d="M3.25888 8.54545L5.78693 13.005L8.33736 8.54545H10.7759L7.20384 14.2727L10.8058 20H8.36719L5.78693 15.7195L3.21413 20H0.768111L4.33274 14.2727L0.812855 8.54545H3.25888Z" fill="black"/>
<path d="M172.982 59L169.612 47.5455H171.916L174.161 55.9574H174.272L176.525 47.5455H178.829L181.066 55.9201H181.178L183.408 47.5455H185.712L182.349 59H180.074L177.748 50.7298H177.576L175.249 59H172.982ZM189.513 61.625V54.2422H189.446L187.142 55.7486V54.0408L189.551 52.4673H191.273V61.625H189.513Z" fill="black"/>
<path d="M172.982 161L169.612 149.545H171.916L174.161 157.957H174.272L176.525 149.545H178.829L181.066 157.92H181.178L183.408 149.545H185.712L182.349 161H180.074L177.748 152.73H177.576L175.249 161H172.982ZM187.328 163.625V162.298L190.871 159.262C191.194 158.984 191.467 158.733 191.691 158.509C191.915 158.286 192.084 158.067 192.198 157.853C192.317 157.634 192.377 157.401 192.377 157.152C192.377 156.734 192.213 156.406 191.885 156.168C191.562 155.924 191.161 155.802 190.684 155.802C190.177 155.802 189.769 155.934 189.461 156.197C189.153 156.461 188.999 156.814 188.999 157.256H187.231C187.231 156.371 187.557 155.665 188.208 155.138C188.86 154.612 189.695 154.348 190.714 154.348C191.4 154.348 191.999 154.47 192.511 154.713C193.023 154.957 193.421 155.288 193.704 155.705C193.993 156.123 194.137 156.595 194.137 157.122C194.137 157.54 194.052 157.928 193.883 158.286C193.714 158.643 193.451 159.006 193.093 159.374C192.735 159.742 192.275 160.15 191.713 160.597L189.983 162.059V162.126H194.353V163.625H187.328Z" fill="black"/>
<path d="M351.982 92L348.612 80.5455H350.916L353.161 88.9574H353.272L355.525 80.5455H357.829L360.066 88.9201H360.178L362.408 80.5455H364.712L361.349 92H359.074L356.748 83.7298H356.576L354.249 92H351.982ZM369.871 94.7443C369.16 94.7443 368.526 94.6275 367.969 94.3938C367.417 94.1651 366.98 93.8469 366.657 93.4393C366.333 93.0366 366.164 92.5668 366.149 92.0298H368.029C368.044 92.3928 368.225 92.6811 368.573 92.8949C368.926 93.1087 369.359 93.2156 369.871 93.2156C370.408 93.2156 370.853 93.0962 371.206 92.8576C371.559 92.6239 371.735 92.3132 371.735 91.9254C371.735 91.5476 371.549 91.2369 371.176 90.9933C370.808 90.7496 370.306 90.6278 369.669 90.6278H368.827V89.2706H369.669C370.191 89.2706 370.624 89.1562 370.967 88.9276C371.31 88.6989 371.481 88.3956 371.481 88.0178C371.481 87.6648 371.335 87.3739 371.041 87.1452C370.753 86.9165 370.373 86.8022 369.9 86.8022C369.418 86.8022 369.006 86.9141 368.663 87.1378C368.32 87.3615 368.141 87.6573 368.126 88.0252H366.358C366.368 87.4933 366.53 87.0284 366.843 86.6307C367.161 86.228 367.586 85.9148 368.118 85.6911C368.65 85.4624 369.247 85.348 369.908 85.348C370.574 85.348 371.158 85.4599 371.66 85.6836C372.168 85.9073 372.563 86.2131 372.846 86.6009C373.134 86.9886 373.279 87.4261 373.279 87.9134C373.279 88.4503 373.092 88.8878 372.719 89.2259C372.351 89.5589 371.902 89.7678 371.37 89.8523V89.9194C372.1 90.0089 372.662 90.2475 373.055 90.6353C373.448 91.0231 373.644 91.4979 373.644 92.0597C373.644 92.5767 373.483 93.0366 373.159 93.4393C372.836 93.8469 372.389 94.1651 371.817 94.3938C371.25 94.6275 370.601 94.7443 369.871 94.7443Z" fill="black"/>
<path d="M227.08 158.841V166H225.752V150.727H227.08V156.343H227.199C227.468 155.751 227.883 155.279 228.445 154.926C229.011 154.573 229.727 154.396 230.592 154.396C231.368 154.396 232.049 154.555 232.636 154.874C233.222 155.192 233.68 155.662 234.008 156.283C234.336 156.904 234.5 157.67 234.5 158.58V166H233.165V158.662C233.165 157.717 232.902 156.974 232.375 156.432C231.853 155.885 231.147 155.612 230.257 155.612C229.645 155.612 229.101 155.741 228.624 156C228.146 156.258 227.768 156.631 227.49 157.118C227.217 157.6 227.08 158.175 227.08 158.841ZM237.354 168.625V167.73L240.777 164.516C241.165 164.148 241.483 163.827 241.732 163.554C241.98 163.276 242.164 163.012 242.284 162.763C242.408 162.515 242.47 162.251 242.47 161.973C242.47 161.486 242.284 161.093 241.911 160.795C241.538 160.491 241.073 160.34 240.516 160.34C239.93 160.34 239.457 160.504 239.099 160.832C238.741 161.155 238.562 161.565 238.562 162.062H237.369C237.369 161.262 237.665 160.611 238.257 160.109C238.853 159.602 239.614 159.348 240.539 159.348C241.15 159.348 241.69 159.462 242.157 159.691C242.629 159.92 242.997 160.23 243.261 160.623C243.529 161.016 243.663 161.458 243.663 161.951C243.663 162.338 243.586 162.701 243.432 163.039C243.283 163.373 243.042 163.728 242.709 164.106C242.376 164.479 241.938 164.919 241.396 165.426L239.137 167.551V167.603H244.006V168.625H237.354ZM247.325 159.557C247.325 157.767 247.551 156.077 248.003 154.486C248.456 152.895 249.105 151.403 249.95 150.011H251.158C250.795 150.598 250.462 151.262 250.159 152.002C249.86 152.743 249.602 153.534 249.383 154.374C249.164 155.214 248.995 156.074 248.876 156.954C248.757 157.829 248.697 158.697 248.697 159.557C248.697 160.705 248.801 161.864 249.01 163.032C249.219 164.2 249.507 165.309 249.875 166.358C250.248 167.407 250.676 168.322 251.158 169.102H249.95C249.105 167.705 248.456 166.211 248.003 164.62C247.551 163.029 247.325 161.342 247.325 159.557ZM253.695 166V164.949L260.317 155.895V155.798H253.979V154.545H262.025V155.642L255.522 164.65V164.747H262.264V166H253.695ZM264.548 168.625V167.73L267.971 164.516C268.358 164.148 268.677 163.827 268.925 163.554C269.174 163.276 269.358 163.012 269.477 162.763C269.601 162.515 269.663 162.251 269.663 161.973C269.663 161.486 269.477 161.093 269.104 160.795C268.731 160.491 268.266 160.34 267.71 160.34C267.123 160.34 266.651 160.504 266.293 160.832C265.935 161.155 265.756 161.565 265.756 162.062H264.563C264.563 161.262 264.858 160.611 265.45 160.109C266.047 159.602 266.807 159.348 267.732 159.348C268.343 159.348 268.883 159.462 269.35 159.691C269.823 159.92 270.19 160.23 270.454 160.623C270.722 161.016 270.857 161.458 270.857 161.951C270.857 162.338 270.78 162.701 270.625 163.039C270.476 163.373 270.235 163.728 269.902 164.106C269.569 164.479 269.131 164.919 268.59 165.426L266.33 167.551V167.603H271.2V168.625H264.548ZM277.188 159.557C277.188 161.347 276.962 163.037 276.509 164.628C276.057 166.219 275.408 167.71 274.563 169.102H273.355C273.718 168.516 274.048 167.852 274.347 167.111C274.65 166.37 274.911 165.58 275.13 164.74C275.348 163.9 275.517 163.039 275.637 162.159C275.756 161.279 275.816 160.412 275.816 159.557C275.816 158.408 275.711 157.25 275.503 156.082C275.294 154.913 275.003 153.805 274.63 152.756C274.262 151.707 273.837 150.792 273.355 150.011H274.563C275.408 151.408 276.057 152.902 276.509 154.493C276.962 156.084 277.188 157.772 277.188 159.557Z" fill="black"/>
<path d="M419.123 117.534C418.342 117.534 417.658 117.432 417.072 117.228C416.485 117.029 415.99 116.756 415.588 116.408C415.185 116.06 414.872 115.67 414.648 115.237L415.737 114.521C415.901 114.81 416.12 115.093 416.393 115.371C416.672 115.65 417.032 115.881 417.474 116.065C417.922 116.249 418.471 116.341 419.123 116.341C420.137 116.341 420.955 116.087 421.576 115.58C422.202 115.073 422.516 114.285 422.516 113.216V110.636H422.396C422.242 110.984 422.021 111.332 421.733 111.68C421.444 112.023 421.066 112.309 420.599 112.538C420.137 112.766 419.563 112.881 418.876 112.881C417.962 112.881 417.149 112.654 416.438 112.202C415.732 111.75 415.175 111.103 414.767 110.263C414.365 109.418 414.163 108.411 414.163 107.243C414.163 106.085 414.36 105.065 414.752 104.185C415.15 103.305 415.705 102.619 416.415 102.127C417.126 101.635 417.954 101.389 418.899 101.389C419.6 101.389 420.181 101.513 420.644 101.762C421.106 102.005 421.477 102.309 421.755 102.672C422.038 103.034 422.26 103.387 422.419 103.73H422.553V101.545H423.85V113.298C423.85 114.268 423.644 115.066 423.232 115.692C422.819 116.319 422.257 116.781 421.546 117.079C420.835 117.382 420.027 117.534 419.123 117.534ZM419.033 111.665C419.769 111.665 420.398 111.489 420.92 111.136C421.442 110.778 421.842 110.266 422.12 109.599C422.399 108.933 422.538 108.14 422.538 107.221C422.538 106.326 422.401 105.533 422.128 104.842C421.854 104.146 421.457 103.599 420.935 103.201C420.418 102.798 419.784 102.597 419.033 102.597C418.267 102.597 417.621 102.803 417.094 103.216C416.567 103.629 416.169 104.185 415.901 104.886C415.632 105.582 415.498 106.36 415.498 107.221C415.498 108.096 415.635 108.869 415.908 109.54C416.182 110.206 416.582 110.728 417.109 111.106C417.636 111.479 418.277 111.665 419.033 111.665ZM430.064 115.744C429.413 115.744 428.829 115.632 428.312 115.409C427.8 115.19 427.392 114.884 427.089 114.491C426.786 114.104 426.631 113.656 426.627 113.149H427.879C427.889 113.612 428.103 113.984 428.521 114.268C428.938 114.556 429.453 114.7 430.064 114.7C430.711 114.7 431.24 114.544 431.653 114.23C432.065 113.917 432.272 113.525 432.272 113.052C432.272 112.57 432.048 112.175 431.601 111.866C431.153 111.553 430.562 111.397 429.826 111.397H429.244V110.457H429.826C430.437 110.457 430.949 110.315 431.362 110.032C431.78 109.749 431.988 109.366 431.988 108.884C431.988 108.441 431.812 108.073 431.459 107.78C431.106 107.487 430.646 107.34 430.079 107.34C429.517 107.34 429.038 107.484 428.64 107.772C428.247 108.061 428.043 108.444 428.028 108.921H426.843C426.853 108.414 426.999 107.966 427.283 107.578C427.571 107.191 427.956 106.89 428.439 106.676C428.926 106.457 429.473 106.348 430.079 106.348C430.691 106.348 431.23 106.455 431.698 106.669C432.17 106.882 432.538 107.178 432.801 107.556C433.065 107.929 433.196 108.352 433.196 108.824C433.196 109.361 433.017 109.808 432.66 110.166C432.302 110.519 431.852 110.748 431.31 110.852V110.912C432.016 111.026 432.563 111.285 432.95 111.688C433.343 112.09 433.54 112.57 433.54 113.127C433.54 113.624 433.39 114.069 433.092 114.462C432.794 114.859 432.384 115.173 431.862 115.401C431.34 115.63 430.741 115.744 430.064 115.744ZM436.817 106.557C436.817 104.767 437.043 103.077 437.496 101.486C437.948 99.8949 438.597 98.4034 439.442 97.0114H440.65C440.287 97.598 439.954 98.2617 439.651 99.0025C439.353 99.7433 439.094 100.534 438.875 101.374C438.657 102.214 438.487 103.074 438.368 103.954C438.249 104.829 438.189 105.697 438.189 106.557C438.189 107.705 438.294 108.864 438.502 110.032C438.711 111.2 439 112.309 439.367 113.358C439.74 114.407 440.168 115.322 440.65 116.102H439.442C438.597 114.705 437.948 113.211 437.496 111.62C437.043 110.029 436.817 108.342 436.817 106.557ZM443.188 113V111.949L449.81 102.895V102.798H443.471V101.545H451.517V102.642L445.015 111.65V111.747H451.756V113H443.188ZM457.381 115.744C456.729 115.744 456.145 115.632 455.628 115.409C455.116 115.19 454.709 114.884 454.405 114.491C454.102 114.104 453.948 113.656 453.943 113.149H455.196C455.206 113.612 455.419 113.984 455.837 114.268C456.255 114.556 456.769 114.7 457.381 114.7C458.027 114.7 458.557 114.544 458.969 114.23C459.382 113.917 459.588 113.525 459.588 113.052C459.588 112.57 459.364 112.175 458.917 111.866C458.47 111.553 457.878 111.397 457.142 111.397H456.56V110.457H457.142C457.754 110.457 458.266 110.315 458.678 110.032C459.096 109.749 459.305 109.366 459.305 108.884C459.305 108.441 459.128 108.073 458.775 107.78C458.422 107.487 457.962 107.34 457.396 107.34C456.834 107.34 456.354 107.484 455.956 107.772C455.564 108.061 455.36 108.444 455.345 108.921H454.159C454.169 108.414 454.316 107.966 454.599 107.578C454.888 107.191 455.273 106.89 455.755 106.676C456.242 106.457 456.789 106.348 457.396 106.348C458.007 106.348 458.547 106.455 459.014 106.669C459.486 106.882 459.854 107.178 460.118 107.556C460.381 107.929 460.513 108.352 460.513 108.824C460.513 109.361 460.334 109.808 459.976 110.166C459.618 110.519 459.168 110.748 458.626 110.852V110.912C459.332 111.026 459.879 111.285 460.267 111.688C460.66 112.09 460.856 112.57 460.856 113.127C460.856 113.624 460.707 114.069 460.408 114.462C460.11 114.859 459.7 115.173 459.178 115.401C458.656 115.63 458.057 115.744 457.381 115.744ZM466.803 106.557C466.803 108.347 466.577 110.037 466.125 111.628C465.672 113.219 465.023 114.71 464.178 116.102H462.97C463.333 115.516 463.664 114.852 463.962 114.111C464.265 113.37 464.526 112.58 464.745 111.74C464.964 110.9 465.133 110.039 465.252 109.159C465.371 108.279 465.431 107.412 465.431 106.557C465.431 105.408 465.327 104.25 465.118 103.082C464.909 101.913 464.618 100.805 464.245 99.7557C463.877 98.7067 463.452 97.7919 462.97 97.0114H464.178C465.023 98.4084 465.672 99.9023 466.125 101.493C466.577 103.084 466.803 104.772 466.803 106.557Z" fill="black"/>
</svg>
