<svg width="255" height="255" viewBox="0 0 255 255" fill="none" xmlns="http://www.w3.org/2000/svg">
<rect x="173" y="172" width="5" height="5" fill="#FF0000"/>
<rect x="73" y="72" width="5" height="5" fill="#FF0000"/>
<path d="M125 0L122.113 5L127.887 5L125 0ZM124.5 4.5L124.5 255L125.5 255L125.5 4.5L124.5 4.5Z" fill="black"/>
<path d="M255 124L250 121.113L250 126.887L255 124ZM4.37114e-08 124.5L250.5 124.5L250.5 123.5L-4.37114e-08 123.5L4.37114e-08 124.5Z" fill="black"/>
<circle cx="175.5" cy="74.5" r="2.5" fill="#0019FF"/>
<circle cx="75.5" cy="174.5" r="2.5" fill="#0019FF"/>
<path d="M242.47 109.455L244.158 112.246L245.845 109.455H246.727L244.622 112.727L246.727 116H245.845L244.158 113.298L242.47 116H241.592L243.672 112.727L241.592 109.455H242.47ZM249.162 117.5V112.983H249.119L247.815 113.848V113.141L249.127 112.267H249.843V117.5H249.162Z" fill="black"/>
<path d="M181.079 61.5455V62.0959H178.398V61.5455H181.079ZM179.236 67V60.7464C179.236 60.4529 179.303 60.2055 179.438 60.0043C179.576 59.803 179.754 59.6503 179.974 59.5462C180.195 59.442 180.428 59.3899 180.674 59.3899C180.84 59.3899 180.977 59.4041 181.086 59.4325C181.197 59.4586 181.285 59.4846 181.349 59.5107L181.164 60.0646C181.117 60.0504 181.059 60.0339 180.99 60.0149C180.921 59.996 180.835 59.9865 180.731 59.9865C180.456 59.9865 180.244 60.0634 180.095 60.2173C179.946 60.3712 179.871 60.5914 179.871 60.8778L179.868 67H179.236ZM182.603 63.9318C182.603 63.0795 182.711 62.2746 182.926 61.517C183.142 60.7595 183.451 60.0492 183.853 59.3864H184.428C184.256 59.6657 184.097 59.9818 183.953 60.3345C183.811 60.6873 183.687 61.0637 183.583 61.4638C183.479 61.8639 183.399 62.2734 183.342 62.6925C183.285 63.1091 183.257 63.5223 183.257 63.9318C183.257 64.4787 183.306 65.0303 183.406 65.5866C183.505 66.143 183.642 66.6709 183.818 67.1705C183.995 67.67 184.199 68.1056 184.428 68.4773H183.853C183.451 67.812 183.142 67.1006 182.926 66.343C182.711 65.5855 182.603 64.7817 182.603 63.9318ZM186.176 68.4773V59.3864H187.995V59.9261H186.78V67.9375H187.995V68.4773H186.176ZM191.493 59.7273V67H190.829V60.4233H190.787L189.082 61.5561V60.8672L190.801 59.7273H191.493ZM194.349 66.0057L194.285 66.3857C194.244 66.6413 194.188 66.9231 194.114 67.2308C194.041 67.5386 193.965 67.831 193.887 68.108C193.809 68.3849 193.741 68.6075 193.684 68.7756H193.198C193.229 68.6146 193.268 68.4098 193.315 68.1612C193.365 67.9126 193.416 67.6368 193.468 67.3338C193.52 67.0331 193.567 66.723 193.61 66.4034L193.66 66.0057H194.349ZM197.392 59.7273V67H196.728V60.4233H196.685L194.981 61.5561V60.8672L196.699 59.7273H197.392ZM201.053 59.3864V68.4773H199.235V67.9375H200.449V59.9261H199.235V59.3864H201.053ZM204.626 63.9318C204.626 64.7841 204.519 65.589 204.303 66.3466C204.088 67.1042 203.779 67.8144 203.376 68.4773H202.801C202.974 68.1979 203.131 67.8819 203.273 67.5291C203.418 67.1764 203.542 66.8 203.646 66.3999C203.75 65.9998 203.831 65.5902 203.888 65.1712C203.945 64.7521 203.973 64.339 203.973 63.9318C203.973 63.3849 203.923 62.8333 203.824 62.277C203.724 61.7206 203.586 61.1927 203.408 60.6932C203.233 60.1937 203.031 59.758 202.801 59.3864H203.376C203.779 60.0516 204.088 60.763 204.303 61.5206C204.519 62.2782 204.626 63.0819 204.626 63.9318ZM209.773 63.4347V62.8487H213.818V63.4347H209.773ZM209.773 65.4695V64.8835H213.818V65.4695H209.773ZM221.642 63.0653V63.6619H218.616V63.0653H221.642ZM225.449 59.7273V67H224.784V60.4233H224.742L223.037 61.5561V60.8672L224.756 59.7273H225.449Z" fill="black"/>
<path d="M29.0788 61.5455V62.0959H26.3977V61.5455H29.0788ZM27.2358 67V60.7464C27.2358 60.4529 27.3033 60.2055 27.4382 60.0043C27.5755 59.803 27.7543 59.6503 27.9744 59.5462C28.1946 59.442 28.4278 59.3899 28.674 59.3899C28.8397 59.3899 28.977 59.4041 29.0859 59.4325C29.1972 59.4586 29.2848 59.4846 29.3487 59.5107L29.1641 60.0646C29.1167 60.0504 29.0587 60.0339 28.9901 60.0149C28.9214 59.996 28.835 59.9865 28.7308 59.9865C28.4562 59.9865 28.2443 60.0634 28.0952 60.2173C27.946 60.3712 27.8714 60.5914 27.8714 60.8778L27.8679 67H27.2358ZM30.6032 63.9318C30.6032 63.0795 30.7109 62.2746 30.9263 61.517C31.1417 60.7595 31.4507 60.0492 31.8532 59.3864H32.4284C32.2556 59.6657 32.097 59.9818 31.9526 60.3345C31.8105 60.6873 31.6874 61.0637 31.5833 61.4638C31.4791 61.8639 31.3986 62.2734 31.3418 62.6925C31.285 63.1091 31.2566 63.5223 31.2566 63.9318C31.2566 64.4787 31.3063 65.0303 31.4057 65.5866C31.5051 66.143 31.6425 66.6709 31.8176 67.1705C31.9952 67.67 32.1988 68.1056 32.4284 68.4773H31.8532C31.4507 67.812 31.1417 67.1006 30.9263 66.343C30.7109 65.5855 30.6032 64.7817 30.6032 63.9318ZM34.1765 68.4773V59.3864H35.9947V59.9261H34.7802V67.9375H35.9947V68.4773H34.1765ZM40.2179 63.5838V64.1804H37.1923V63.5838H40.2179ZM44.0247 59.7273V67H43.3606V60.4233H43.318L41.6135 61.5561V60.8672L43.3322 59.7273H44.0247ZM46.8798 66.0057L46.8159 66.3857C46.7756 66.6413 46.7188 66.9231 46.6454 67.2308C46.572 67.5386 46.4963 67.831 46.4181 68.108C46.34 68.3849 46.2725 68.6075 46.2157 68.7756H45.7292C45.76 68.6146 45.7991 68.4098 45.8464 68.1612C45.8961 67.9126 45.947 67.6368 45.9991 67.3338C46.0512 67.0331 46.0985 66.723 46.1412 66.4034L46.1909 66.0057H46.8798ZM49.9231 59.7273V67H49.2591V60.4233H49.2164L47.5119 61.5561V60.8672L49.2306 59.7273H49.9231ZM53.5843 58.8182V67.9091H51.7662V67.3693H52.9806V59.358H51.7662V58.8182H53.5843ZM57.1577 63.3636C57.1577 64.2159 57.05 65.0208 56.8345 65.7784C56.6191 66.536 56.3101 67.2462 55.9077 67.9091H55.3324C55.5052 67.6297 55.6626 67.3137 55.8047 66.9609C55.9491 66.6082 56.0734 66.2318 56.1776 65.8317C56.2817 65.4316 56.3622 65.022 56.419 64.603C56.4759 64.1839 56.5043 63.7708 56.5043 63.3636C56.5043 62.8168 56.4545 62.2652 56.3551 61.7088C56.2557 61.1525 56.1172 60.6245 55.9396 60.125C55.7644 59.6255 55.562 59.1899 55.3324 58.8182H55.9077C56.3101 59.4834 56.6191 60.1948 56.8345 60.9524C57.05 61.71 57.1577 62.5137 57.1577 63.3636ZM62.3042 62.6392V62.0533H66.3489V62.6392H62.3042ZM62.3042 64.674V64.0881H66.3489V64.674H62.3042ZM73.3491 65.6222V61.1229H73.9563V65.6222H73.3491ZM71.4031 63.6761V63.0689H75.9023V63.6761H71.4031ZM79.9622 59.7273V67H79.2981V60.4233H79.2555L77.551 61.5561V60.8672L79.2697 59.7273H79.9622Z" fill="black"/>
<path d="M181.079 183.545V184.096H178.398V183.545H181.079ZM179.236 189V182.746C179.236 182.453 179.303 182.205 179.438 182.004C179.576 181.803 179.754 181.65 179.974 181.546C180.195 181.442 180.428 181.39 180.674 181.39C180.84 181.39 180.977 181.404 181.086 181.433C181.197 181.459 181.285 181.485 181.349 181.511L181.164 182.065C181.117 182.05 181.059 182.034 180.99 182.015C180.921 181.996 180.835 181.987 180.731 181.987C180.456 181.987 180.244 182.063 180.095 182.217C179.946 182.371 179.871 182.591 179.871 182.878L179.868 189H179.236ZM182.603 185.932C182.603 185.08 182.711 184.275 182.926 183.517C183.142 182.759 183.451 182.049 183.853 181.386H184.428C184.256 181.666 184.097 181.982 183.953 182.335C183.811 182.687 183.687 183.064 183.583 183.464C183.479 183.864 183.399 184.273 183.342 184.692C183.285 185.109 183.257 185.522 183.257 185.932C183.257 186.479 183.306 187.03 183.406 187.587C183.505 188.143 183.642 188.671 183.818 189.17C183.995 189.67 184.199 190.106 184.428 190.477H183.853C183.451 189.812 183.142 189.101 182.926 188.343C182.711 187.585 182.603 186.782 182.603 185.932ZM186.176 190.477V181.386H187.995V181.926H186.78V189.938H187.995V190.477H186.176ZM191.493 181.727V189H190.829V182.423H190.787L189.082 183.556V182.867L190.801 181.727H191.493ZM194.349 188.006L194.285 188.386C194.244 188.641 194.188 188.923 194.114 189.231C194.041 189.539 193.965 189.831 193.887 190.108C193.809 190.385 193.741 190.607 193.684 190.776H193.198C193.229 190.615 193.268 190.41 193.315 190.161C193.365 189.913 193.416 189.637 193.468 189.334C193.52 189.033 193.567 188.723 193.61 188.403L193.66 188.006H194.349ZM198.966 185.065V185.662H195.94V185.065H198.966ZM202.773 181.727V189H202.109V182.423H202.066L200.362 183.556V182.867L202.08 181.727H202.773ZM206.434 180.818V189.909H204.616V189.369H205.83V181.358H204.616V180.818H206.434ZM210.007 185.364C210.007 186.216 209.9 187.021 209.684 187.778C209.469 188.536 209.16 189.246 208.757 189.909H208.182C208.355 189.63 208.512 189.314 208.654 188.961C208.799 188.608 208.923 188.232 209.027 187.832C209.131 187.432 209.212 187.022 209.269 186.603C209.325 186.184 209.354 185.771 209.354 185.364C209.354 184.817 209.304 184.265 209.205 183.709C209.105 183.152 208.967 182.625 208.789 182.125C208.614 181.625 208.412 181.19 208.182 180.818H208.757C209.16 181.483 209.469 182.195 209.684 182.952C209.9 183.71 210.007 184.514 210.007 185.364ZM215.154 184.639V184.053H219.199V184.639H215.154ZM215.154 186.674V186.088H219.199V186.674H215.154ZM226.199 187.622V183.123H226.806V187.622H226.199ZM224.253 185.676V185.069H228.752V185.676H224.253ZM232.812 181.727V189H232.148V182.423H232.105L230.401 183.556V182.867L232.119 181.727H232.812Z" fill="black"/>
<path d="M29.0788 183.545V184.096H26.3977V183.545H29.0788ZM27.2358 189V182.746C27.2358 182.453 27.3033 182.205 27.4382 182.004C27.5755 181.803 27.7543 181.65 27.9744 181.546C28.1946 181.442 28.4278 181.39 28.674 181.39C28.8397 181.39 28.977 181.404 29.0859 181.433C29.1972 181.459 29.2848 181.485 29.3487 181.511L29.1641 182.065C29.1167 182.05 29.0587 182.034 28.9901 182.015C28.9214 181.996 28.835 181.987 28.7308 181.987C28.4562 181.987 28.2443 182.063 28.0952 182.217C27.946 182.371 27.8714 182.591 27.8714 182.878L27.8679 189H27.2358ZM30.6032 185.932C30.6032 185.08 30.7109 184.275 30.9263 183.517C31.1417 182.759 31.4507 182.049 31.8532 181.386H32.4284C32.2556 181.666 32.097 181.982 31.9526 182.335C31.8105 182.687 31.6874 183.064 31.5833 183.464C31.4791 183.864 31.3986 184.273 31.3418 184.692C31.285 185.109 31.2566 185.522 31.2566 185.932C31.2566 186.479 31.3063 187.03 31.4057 187.587C31.5051 188.143 31.6425 188.671 31.8176 189.17C31.9952 189.67 32.1988 190.106 32.4284 190.477H31.8532C31.4507 189.812 31.1417 189.101 30.9263 188.343C30.7109 187.585 30.6032 186.782 30.6032 185.932ZM34.1765 190.477V181.386H35.9947V181.926H34.7802V189.938H35.9947V190.477H34.1765ZM40.2179 185.584V186.18H37.1923V185.584H40.2179ZM44.0247 181.727V189H43.3606V182.423H43.318L41.6135 183.556V182.867L43.3322 181.727H44.0247ZM46.8798 188.006L46.8159 188.386C46.7756 188.641 46.7188 188.923 46.6454 189.231C46.572 189.539 46.4963 189.831 46.4181 190.108C46.34 190.385 46.2725 190.607 46.2157 190.776H45.7292C45.76 190.615 45.7991 190.41 45.8464 190.161C45.8961 189.913 45.947 189.637 45.9991 189.334C46.0512 189.033 46.0985 188.723 46.1412 188.403L46.1909 188.006H46.8798ZM51.4972 185.065V185.662H48.4716V185.065H51.4972ZM55.304 181.727V189H54.6399V182.423H54.5973L52.8928 183.556V182.867L54.6115 181.727H55.304ZM58.9652 180.818V189.909H57.147V189.369H58.3615V181.358H57.147V180.818H58.9652ZM62.5385 185.364C62.5385 186.216 62.4308 187.021 62.2154 187.778C61.9999 188.536 61.691 189.246 61.2885 189.909H60.7132C60.8861 189.63 61.0435 189.314 61.1855 188.961C61.33 188.608 61.4542 188.232 61.5584 187.832C61.6626 187.432 61.7431 187.022 61.7999 186.603C61.8567 186.184 61.8851 185.771 61.8851 185.364C61.8851 184.817 61.8354 184.265 61.736 183.709C61.6365 183.152 61.498 182.625 61.3205 182.125C61.1453 181.625 60.9429 181.19 60.7132 180.818H61.2885C61.691 181.483 61.9999 182.195 62.2154 182.952C62.4308 183.71 62.5385 184.514 62.5385 185.364ZM67.685 184.639V184.053H71.7298V184.639H67.685ZM67.685 186.674V186.088H71.7298V186.674H67.685ZM79.5538 185.065V185.662H76.5282V185.065H79.5538ZM83.3606 181.727V189H82.6966V182.423H82.6539L80.9494 183.556V182.867L82.6681 181.727H83.3606Z" fill="black"/>
<path d="M131.47 5.45455L133.158 8.24574L134.845 5.45455H135.727L133.622 8.72727L135.727 12H134.845L133.158 9.2983L131.47 12H130.592L132.672 8.72727L130.592 5.45455H131.47ZM136.951 13.5V12.9886L138.907 11.152C139.129 10.9418 139.311 10.7585 139.453 10.6023C139.595 10.4432 139.7 10.2926 139.768 10.1506C139.839 10.0085 139.875 9.85795 139.875 9.69886C139.875 9.42045 139.768 9.19602 139.555 9.02557C139.342 8.85227 139.076 8.76562 138.758 8.76562C138.423 8.76562 138.153 8.85938 137.949 9.04688C137.744 9.23153 137.642 9.46591 137.642 9.75H136.96C136.96 9.29261 137.129 8.92045 137.467 8.63352C137.808 8.34375 138.243 8.19886 138.771 8.19886C139.12 8.19886 139.429 8.2642 139.696 8.39489C139.966 8.52557 140.176 8.70312 140.326 8.92756C140.48 9.15199 140.556 9.40483 140.556 9.68608C140.556 9.90767 140.512 10.1151 140.424 10.3082C140.339 10.4986 140.201 10.7017 140.011 10.9176C139.821 11.1307 139.571 11.3821 139.261 11.6719L137.97 12.8864V12.9162H140.752V13.5H136.951Z" fill="black"/>
</svg>
