<svg width="238" height="148" viewBox="0 0 238 148" fill="none" xmlns="http://www.w3.org/2000/svg">
<path d="M109 0L106.113 5L111.887 5L109 0ZM108.5 4.5L108.5 148L109.5 148L109.5 4.5L108.5 4.5Z" fill="black"/>
<path d="M238 135L233 132.113V137.887L238 135ZM0 135.5H233.5V134.5H0V135.5Z" fill="black"/>
<path d="M55.1591 12V3.27273H57.9759C58.5952 3.27273 59.1122 3.38494 59.527 3.60938C59.9446 3.83097 60.2585 4.1392 60.4688 4.53409C60.6818 4.92614 60.7884 5.37642 60.7884 5.88494C60.7884 6.39347 60.6818 6.84233 60.4688 7.23153C60.2585 7.62074 59.946 7.92472 59.5312 8.14347C59.1165 8.36222 58.6023 8.47159 57.9886 8.47159H55.5895V7.7429H57.9673C58.4219 7.7429 58.7997 7.66761 59.1009 7.51705C59.4048 7.36648 59.6307 7.15199 59.7784 6.87358C59.929 6.59517 60.0043 6.26562 60.0043 5.88494C60.0043 5.50426 59.929 5.17187 59.7784 4.88778C59.6278 4.60085 59.4006 4.37926 59.0966 4.22301C58.7955 4.06676 58.4148 3.98864 57.9545 3.98864H55.956V12H55.1591ZM59.0071 8.0625L61.1548 12H60.2344L58.108 8.0625H59.0071ZM65.1477 12.1364C64.5369 12.1364 64.0085 11.9943 63.5625 11.7102C63.1165 11.4233 62.7713 11.027 62.527 10.5213C62.2855 10.0128 62.1648 9.42756 62.1648 8.76562C62.1648 8.10653 62.2855 7.52131 62.527 7.00994C62.7713 6.49574 63.108 6.09375 63.5369 5.80398C63.9688 5.51136 64.4673 5.36506 65.0327 5.36506C65.3878 5.36506 65.7301 5.4304 66.0597 5.56108C66.3892 5.68892 66.6847 5.88636 66.946 6.15341C67.2102 6.41761 67.419 6.75142 67.5724 7.15483C67.7259 7.5554 67.8026 8.02983 67.8026 8.57812V8.95312H62.6889V8.28409H67.027C67.027 7.86364 66.9418 7.4858 66.7713 7.15057C66.6037 6.8125 66.3693 6.54545 66.0682 6.34943C65.7699 6.15341 65.4247 6.0554 65.0327 6.0554C64.6179 6.0554 64.2528 6.16619 63.9375 6.38778C63.6222 6.60937 63.375 6.90199 63.196 7.26562C63.0199 7.62926 62.9304 8.02699 62.9276 8.45881V8.85938C62.9276 9.37926 63.017 9.83381 63.196 10.223C63.3778 10.6094 63.6349 10.9091 63.9673 11.1222C64.2997 11.3352 64.6932 11.4418 65.1477 11.4418C65.4574 11.4418 65.7287 11.3935 65.9616 11.2969C66.1974 11.2003 66.3949 11.071 66.554 10.9091C66.7159 10.7443 66.8381 10.5639 66.9205 10.3679L67.6406 10.6023C67.5412 10.8778 67.3778 11.1321 67.1506 11.3651C66.9261 11.598 66.6449 11.7855 66.3068 11.9276C65.9716 12.0668 65.5852 12.1364 65.1477 12.1364ZM69.6317 12V3.27273H70.4286V11.2841H74.5877V12H69.6317ZM82.1985 3.27273H82.9954V9.05114C82.9954 9.64489 82.8562 10.1761 82.5778 10.6449C82.2994 11.1108 81.9116 11.4787 81.4144 11.7486C80.9201 12.0156 80.3448 12.1491 79.6886 12.1491C79.0352 12.1491 78.4599 12.0142 77.9627 11.7443C77.4656 11.4744 77.0778 11.1065 76.7994 10.6406C76.521 10.1747 76.3817 9.64489 76.3817 9.05114V3.27273H77.1786V8.99574C77.1786 9.45881 77.2823 9.87216 77.4897 10.2358C77.6971 10.5966 77.9883 10.8807 78.3633 11.0881C78.7411 11.2955 79.1829 11.3991 79.6886 11.3991C80.1942 11.3991 80.636 11.2955 81.0138 11.0881C81.3917 10.8807 81.6829 10.5966 81.8874 10.2358C82.0948 9.87216 82.1985 9.45881 82.1985 8.99574V3.27273ZM85.4691 8.31818C85.4691 7.29545 85.5984 6.32955 85.8569 5.42045C86.1154 4.51136 86.4862 3.65909 86.9691 2.86364H87.6594C87.4521 3.19886 87.2617 3.57812 87.0884 4.00142C86.918 4.42472 86.7702 4.87642 86.6452 5.35653C86.5202 5.83665 86.4237 6.32812 86.3555 6.83097C86.2873 7.33097 86.2532 7.8267 86.2532 8.31818C86.2532 8.97443 86.3129 9.63636 86.4322 10.304C86.5515 10.9716 86.7163 11.6051 86.9265 12.2045C87.1396 12.804 87.3839 13.3267 87.6594 13.7727H86.9691C86.4862 12.9744 86.1154 12.1207 85.8569 11.2116C85.5984 10.3026 85.4691 9.33807 85.4691 8.31818ZM93.7116 6.89062L93.017 7.08665C92.9489 6.89062 92.8523 6.71307 92.7273 6.55398C92.6023 6.39489 92.4389 6.26847 92.2372 6.17472C92.0384 6.08097 91.7912 6.03409 91.4957 6.03409C91.0526 6.03409 90.6889 6.1392 90.4048 6.34943C90.1207 6.55966 89.9787 6.83097 89.9787 7.16335C89.9787 7.4446 90.0753 7.6733 90.2685 7.84943C90.4645 8.02273 90.7656 8.16051 91.1719 8.26278L92.1605 8.50568C92.7088 8.6392 93.1193 8.85085 93.392 9.14062C93.6676 9.4304 93.8054 9.79403 93.8054 10.2315C93.8054 10.6009 93.7031 10.929 93.4986 11.2159C93.294 11.5028 93.0085 11.7287 92.642 11.8935C92.2784 12.0554 91.8565 12.1364 91.3764 12.1364C90.7372 12.1364 90.2102 11.9929 89.7955 11.706C89.3807 11.4162 89.1151 10.9986 88.9986 10.4531L89.7273 10.2741C89.821 10.6634 90.0043 10.9574 90.277 11.1562C90.5526 11.3551 90.9148 11.4545 91.3636 11.4545C91.8665 11.4545 92.2685 11.3423 92.5696 11.1179C92.8707 10.8906 93.0213 10.6065 93.0213 10.2656C93.0213 10.0014 92.9332 9.77983 92.7571 9.60085C92.581 9.41903 92.3139 9.28551 91.956 9.20028L90.8864 8.9446C90.3182 8.80824 89.8977 8.59233 89.625 8.29688C89.3523 8.00142 89.2159 7.63494 89.2159 7.19744C89.2159 6.83665 89.3139 6.51989 89.5099 6.24716C89.706 5.97159 89.9759 5.75568 90.3196 5.59943C90.6634 5.44318 91.0554 5.36506 91.4957 5.36506C92.0952 5.36506 92.5739 5.50142 92.9318 5.77415C93.2926 6.04403 93.5526 6.41619 93.7116 6.89062ZM97.3072 8.31818C97.3072 9.34091 97.1779 10.3068 96.9194 11.2159C96.6609 12.125 96.2901 12.9773 95.8072 13.7727H95.1168C95.3242 13.4375 95.5131 13.0582 95.6836 12.6349C95.8569 12.2116 96.006 11.7599 96.131 11.2798C96.256 10.7997 96.3526 10.3082 96.4208 9.8054C96.489 9.30256 96.5231 8.80682 96.5231 8.31818C96.5231 7.66193 96.4634 7 96.3441 6.33239C96.2248 5.66477 96.0586 5.03125 95.8455 4.43182C95.6353 3.83239 95.3924 3.30966 95.1168 2.86364H95.8072C96.2901 3.66193 96.6609 4.51562 96.9194 5.42472C97.1779 6.33381 97.3072 7.2983 97.3072 8.31818Z" fill="black"/>
<path d="M232.47 119.455L234.158 122.246L235.845 119.455H236.727L234.622 122.727L236.727 126H235.845L234.158 123.298L232.47 126H231.592L233.672 122.727L231.592 119.455H232.47Z" fill="black"/>
<line x1="108.646" y1="135.646" x2="213.646" y2="30.6465" stroke="#FF0000"/>
<path d="M138.966 48V40.7273H141.313C141.829 40.7273 142.26 40.8208 142.606 41.0078C142.954 41.1925 143.215 41.4493 143.391 41.7784C143.568 42.1051 143.657 42.4804 143.657 42.9041C143.657 43.3279 143.568 43.7019 143.391 44.0263C143.215 44.3506 142.955 44.6039 142.609 44.7862C142.264 44.9685 141.835 45.0597 141.324 45.0597H139.325V44.4524H141.306C141.685 44.4524 142 44.3897 142.251 44.2642C142.504 44.1387 142.692 43.96 142.815 43.728C142.941 43.496 143.004 43.2214 143.004 42.9041C143.004 42.5869 142.941 42.3099 142.815 42.0732C142.69 41.834 142.5 41.6494 142.247 41.5192C141.996 41.389 141.679 41.3239 141.295 41.3239H139.63V48H138.966ZM142.173 44.7188L143.962 48H143.195L141.423 44.7188H142.173ZM147.29 48.1136C146.781 48.1136 146.34 47.9953 145.969 47.7585C145.597 47.5194 145.309 47.1892 145.106 46.7678C144.905 46.344 144.804 45.8563 144.804 45.3047C144.804 44.7554 144.905 44.2678 145.106 43.8416C145.309 43.4131 145.59 43.0781 145.947 42.8366C146.307 42.5928 146.723 42.4709 147.194 42.4709C147.49 42.4709 147.775 42.5253 148.05 42.6342C148.324 42.7408 148.571 42.9053 148.788 43.1278C149.009 43.348 149.183 43.6262 149.31 43.9624C149.438 44.2962 149.502 44.6915 149.502 45.1484V45.4609H145.241V44.9034H148.856C148.856 44.553 148.785 44.2382 148.643 43.9588C148.503 43.6771 148.308 43.4545 148.057 43.2912C147.808 43.1278 147.521 43.0462 147.194 43.0462C146.848 43.0462 146.544 43.1385 146.281 43.3232C146.018 43.5078 145.813 43.7517 145.663 44.0547C145.517 44.3577 145.442 44.6892 145.44 45.049V45.3828C145.44 45.8161 145.514 46.1948 145.663 46.5192C145.815 46.8411 146.029 47.0909 146.306 47.2685C146.583 47.446 146.911 47.5348 147.29 47.5348C147.548 47.5348 147.774 47.4946 147.968 47.4141C148.165 47.3336 148.329 47.2259 148.462 47.0909C148.597 46.9536 148.698 46.8033 148.767 46.6399L149.367 46.8352C149.284 47.0649 149.148 47.2768 148.959 47.4709C148.772 47.665 148.537 47.8213 148.256 47.9396C147.976 48.0556 147.654 48.1136 147.29 48.1136ZM151.026 48V40.7273H151.691V47.4034H155.156V48H151.026ZM161.499 40.7273H162.163V45.5426C162.163 46.0374 162.047 46.4801 161.815 46.8707C161.583 47.259 161.26 47.5656 160.845 47.7905C160.433 48.013 159.954 48.1243 159.407 48.1243C158.863 48.1243 158.383 48.0118 157.969 47.7869C157.555 47.562 157.231 47.2554 156.999 46.8672C156.767 46.4789 156.651 46.0374 156.651 45.5426V40.7273H157.316V45.4964C157.316 45.8823 157.402 46.2268 157.575 46.5298C157.748 46.8305 157.99 47.0672 158.303 47.2401C158.618 47.4129 158.986 47.4993 159.407 47.4993C159.829 47.4993 160.197 47.4129 160.512 47.2401C160.826 47.0672 161.069 46.8305 161.24 46.5298C161.412 46.2268 161.499 45.8823 161.499 45.4964V40.7273ZM164.224 44.9318C164.224 44.0795 164.332 43.2746 164.547 42.517C164.763 41.7595 165.072 41.0492 165.474 40.3864H166.05C165.877 40.6657 165.718 40.9818 165.574 41.3345C165.432 41.6873 165.309 42.0637 165.204 42.4638C165.1 42.8639 165.02 43.2734 164.963 43.6925C164.906 44.1091 164.878 44.5223 164.878 44.9318C164.878 45.4787 164.927 46.0303 165.027 46.5866C165.126 47.143 165.264 47.6709 165.439 48.1705C165.616 48.67 165.82 49.1056 166.05 49.4773H165.474C165.072 48.812 164.763 48.1006 164.547 47.343C164.332 46.5855 164.224 45.7817 164.224 44.9318ZM167.819 42.5455L169.225 44.8714L170.631 42.5455H171.366L169.612 45.2727L171.366 48H170.631L169.225 45.7486L167.819 48H167.087L168.82 45.2727L167.087 42.5455H167.819ZM174.226 44.9318C174.226 45.7841 174.118 46.589 173.903 47.3466C173.687 48.1042 173.378 48.8144 172.976 49.4773H172.401C172.574 49.1979 172.731 48.8819 172.873 48.5291C173.017 48.1764 173.142 47.8 173.246 47.3999C173.35 46.9998 173.431 46.5902 173.487 46.1712C173.544 45.7521 173.573 45.339 173.573 44.9318C173.573 44.3849 173.523 43.8333 173.423 43.277C173.324 42.7206 173.186 42.1927 173.008 41.6932C172.833 41.1937 172.63 40.758 172.401 40.3864H172.976C173.378 41.0516 173.687 41.763 173.903 42.5206C174.118 43.2782 174.226 44.0819 174.226 44.9318ZM179.373 44.4347V43.8487H183.417V44.4347H179.373ZM179.373 46.4695V45.8835H183.417V46.4695H179.373ZM188.688 42.5455L190.094 44.8714L191.501 42.5455H192.236L190.481 45.2727L192.236 48H191.501L190.094 45.7486L188.688 48H187.956L189.689 45.2727L187.956 42.5455H188.688Z" fill="black"/>
<line x1="9.15015" y1="135.546" x2="109.15" y2="135.546" stroke="#FF0000"/>
</svg>
